<?xml version="1.0" encoding="UTF-8"?>
<svg id="Layer_1" xmlns="http://www.w3.org/2000/svg" version="1.1" viewBox="0 0 1711.7 404.8">
  <!-- Generator: Adobe Illustrator 30.1.0, SVG Export Plug-In . SVG Version: 2.1.1 Build 136)  -->
  <defs>
    <style>
      .st0 {
        fill: #fff;
      }
    </style>
  </defs>
  <path class="st0" d="M873.5,55h-25.9c-5.6,0-12,8.1-15.3,12.1-.9,1.1-8.7,11.5-4.2,11.5h24.5v216.7c0,5,10.1-3.7,11-4.5,3-2.7,5.7-5.8,8.1-9.1,1.3-1.9,3.4-4.5,3.4-7V56.5c0-1-.5-1.5-1.5-1.5Z"/>
  <path class="st0" d="M887.5,7.3h-25.9c-5.6,0-14.9,8.1-18.2,12.1-.9,1.1-8.7,11.5-4.2,11.5,8.6,0,17.3.2,25.9,0,8.4-.2,30.1-23.8,22.5-23.6Z"/>
  <path class="st0" d="M817,119c-.1-.6-.8-4.5-1-5.2-2-11.8-6.2-24.2-14.2-34.5-12.6-16.2-30.3-20.1-45.8-21.9-8.1-.9-30.8-1.1-39-1.1-5.6,0-14.9,7.7-18.2,11.5-.9,1.1-8.7,10.9-4.3,10.9,12.9,0,40.5,0,53.7.7,11.8.6,38.2,0,53.4,30.9.5,1.1,1.1,2.3,1.8,3.8,1.4,3.3,2.3,6.8,2.5,10.4,1.2,21-2.8,41.9-11.7,60.9-20.4,43.2-65.8,74.1-131.7,89.9.3-20.5,1-75.4,1-99.4,0-22.1-.4-44.8-5.8-66.3-4.1-16.3-15.4-32.2-30-41.6-14.2-9.2-30.6-11-47.2-11h-22.3c-20.5-.2,2.9-.9-25.5,0h-1.9c-5.6,0-14.9,7.7-18.2,11.5-.9,1.1-8.7,11-4.3,11h43.9c13.8.1,37.4,1.2,49.9,7.6,35,18,35.4,65.9,35.9,99.9.4,28.5-.7,82.4-.9,95.6,0,7.9-.5,9.7,4.9,9,1.1-.1,3.4-.5,4.6-.7,70-13.2,119.7-40.6,147.5-81.5,4.9-7.2,9.1-14.8,12.5-22.7.2-.5.4-1,.6-1.5.3-.7.6-1.4.8-2,3.3-8.1,5.8-16.4,7.5-25,.2-.9.7-3.8,1.2-8.2,2.6-19.6.5-29.6.3-30.7Z"/>
  <path class="st0" d="M582.3,223.5c-21.5-32.7-43.6-65.2-67.3-96.4-10.9-14.4-22.2-28.7-34.5-42.1-8.2-9-17.1-18.7-27.8-24.8-6.1-3.5-11.6-3.5-18.4-3.5h-45.6c-31.5,0-40.9-1-72.3,0h-1.9c-5.6,0-14.9,7.5-18.2,11.2-.9,1.1-8.7,10.7-4.3,10.7h130.7c.5,0,1.1,0,1.6.1.6,0,1.2.2,1.7.4,10.1,3.5,18.5,12.3,25.7,19.7,2.7,2.7,5.2,5.4,7.8,8.2-26.8,18.6-75.8,54.5-121.2,98.6-17.8-26.7-36.1-53-55.5-78.6-10.9-14.4-22.2-28.7-34.5-42.1-8.2-9-17.1-18.7-27.8-24.8-6.1-3.5-11.6-3.5-18.4-3.5h-45.7c-31.5,0-60.3-1-91.8,0h-1.9c-5.6,0-14.9,7.5-18.2,11.2-1,1.1-8.7,10.7-4.3,10.7h150.1c.5,0,1.1,0,1.6.1.6,0,1.2.2,1.7.4,10.1,3.5,18.5,12.3,25.7,19.7,2.6,2.7,5.2,5.4,7.8,8.2-49.2,34.6-95.6,73.1-137.2,116.6-34.7,37.2-67.8,78.8-83.3,128-5,16.4-7.6,33.8-6.3,51.1,0,1.2,1.1,2.1,2.3,2,1.2,0,2.1-1.1,2-2.3-1-16.6,1.8-33.3,6.9-49.2,12.9-38.1,39-75.7,71.2-110.8h243.8c6.7,10.1,13.3,20.3,19.8,30.4,2.8,4.4,5.5,8.7,8.3,13.1,1.4,2.2,1.9,2.9,2.1,3.2,1.9,3,34.8.5,32.5-3.3-6.9-11.2-17.6-28.4-27.1-43.4h196.8c6.7,10.1,13.3,20.3,19.8,30.4,2.8,4.4,5.5,8.7,8.3,13.1,1.4,2.2,1.9,2.9,2.1,3.2,1.9,3,34.8.5,32.5-3.3-10.2-16.5-28.6-46.2-39.3-62.4ZM91.1,233.8c43.9-45.9,97.4-86.9,143.6-118.2,6.1,7.2,12.1,14.5,17.9,21.9,24.3,31,46.7,63.5,68.5,96.3H91.1ZM356.7,233.8c-2.4-3.8-4.7-7.3-6.7-10.3-1.7-2.7-3.5-5.3-5.3-8,46-44.9,96-81.4,122.5-99.7,6.1,7.1,11.9,14.3,17.6,21.7,24.3,31,46.7,63.5,68.5,96.3h-196.6Z"/>
  <path class="st0" d="M1456,73.4v152.6c-9,12.3-19.8,23.1-32,32.2-5.3,3.1-11,5.5-16.8,7.3-20.1,5.5-42.9,6.2-62.3-2.3-19.4-8.4-34.6-24.3-42-44.1-8.8-24.2-5.6-52.6,5.3-75.4,3-6.3,6.6-12.3,10.7-18,1.1-1.6,2.3-3.2,3.5-4.8l.6-.8c.4-.4,1.7-2.2,1.7-2.1,2.5-3.1,5-6.1,7.6-9l2.5-2.7c1.5-1.6,3-3.2,4.5-4.8s3.1-3.2,4.6-4.8c.8-.8,1.6-1.6,2.4-2.4l1.7-1.7c2.1-2,6.1-5.9,9-8.7,3.7-3.5,7.5-7,11.3-10.5,3.9-3.4,7.2-7.4,9.9-11.9.6-1,3.2-5.7.2-5.7h-224.2V.8c0-5-25.4,13.8-25.4,18.5v36.5h-159c-19.1,0-33,20.4-33,20.4,0,0-27.6,32.9-18.8,52,7.3,15.7,25.6,25.2,40.4,32.4,20.6,10.1,42.2,18,63.5,26.6,17.9,7.3,37.3,14.6,52.2,27.2,3.1,2.5,5.8,5.4,8,8.7,1.9,2.5,3,5.5,3.3,8.6.1,1.6,0,3.2-.2,4.8,0,.4-.1.8-.2,1.2-.3,1-.7,1.9-1.2,2.8l-3.6,4.5-.4.4c-1.6,1.5-3.1,3.1-4.7,4.6l-.3.2c-1,.9-2.1,1.8-3.1,2.7l-.4.4-.3.2c-1,.8-2.1,1.6-3.1,2.3l-.7.5-.4.2c-1.5.9-3,1.9-4.5,2.7-5.1,2.7-10.5,4.9-16,6.6-7.5,2.1-15.1,3.5-22.9,3.9-32.2,2.4-63.4-9.9-84.3-34.9-9.9-11.8-16.9-26.2-17-41.9,0-4.8-10.3,3.5-11.2,4.3-3.1,2.7-5.8,5.6-8.3,8.9-1.3,1.8-3.5,4.4-3.5,6.8.4,31.6,25.6,58.3,52.9,70.9,30.7,14.2,68.1,11.7,97.5-4.4,13.5-7.4,25-17.8,35.8-28.5.7-.7,2.2-2.2,3.9-4,12-12.3,25.6-30.3,13.5-46.8-10.3-14-29.1-21.7-44.5-28.4-21.1-9.2-42.8-16.9-63.9-26.1-17.2-7.5-36.5-16-49-30.4-5.4-6.2-8.5-12.7-7.8-20.8,0-.9.2-1.8.4-2.6,0-.7.3-1.3.5-1.9.4-1.1.8-2.2,1.2-3.3.2-.5.4-1,.7-1.4.2-.4,0,0,0,0,0,0,1.3-2.2,1.7-2.7s.9-1.3,1.2-1.7c.4-.4.8-.8,1.2-1.2.1-.1.3-.2.4-.3h72.8c.1,0,.2,0,.3,0h110.9v141.1c0,18.1,2.5,37.8,14.3,51.9,10.2,12.2,25.7,16.9,40.6,19.4,12.7,2.1,26.9-2.9,40.8-11.1,16-6.2,36.1-18.3,55.7-41.8,6.2,18.7,19.3,34.4,36.6,43.9,20.6,11.2,43.9,12,66.4,7.2,14.4-3.1,27.1-10.7,39-20,12.7-8.3,24.2-18.4,33.9-30.1v55.1c0,5,10.1-3.7,11-4.5,3-2.8,9.7-5.7,12-9.1,1.3-1.9,3.4-4.5,3.4-7V54.9c-.1-5-26.4,13.8-26.4,18.5ZM1277,226.7c.1.6.3,1.3.4,1.9-3.7,4.7-7.6,9.2-11.7,13.6-17.7,15.5-42.3,31.7-65.1,28.5-14.7-2.1-27.5-8.2-37-20.6-10.5-13.8-9.5-33.4-9.5-50.5v-120.2h195.8c-40.4,38.4-83.7,87.9-73,147.3h0Z"/>
  <path class="st0" d="M1707,200.2c-10.2-14-29.1-21.7-44.5-28.4-21.1-9.2-42.8-16.9-63.9-26.1-17.1-7.5-36.5-16-49-30.4-5.4-6.2-8.5-12.7-7.8-20.8,0-.9.2-1.8.4-2.6,0-.7.3-1.3.5-1.9.4-1.1.8-2.2,1.2-3.3.2-.5.4-1,.7-1.4.2-.4,0,0,0,0,0,0,1.3-2.2,1.7-2.7s.9-1.3,1.2-1.7c.4-.4.8-.8,1.2-1.2.1-.1.3-.2.4-.3,21.6,0,121.1,0,121.7,0,5.6-.1,14.9-7.5,18.2-11.2.9-1.1,8.7-12.2,4.3-12.2h-119.1c-19.1,0-33,20.4-33,20.4,0,0-27.6,32.9-18.8,52,7.2,15.7,25.6,25.2,40.3,32.4,20.6,10.1,42.2,18,63.5,26.6,17.9,7.3,37.3,14.6,52.2,27.2,3.1,2.5,5.8,5.4,8,8.7,1.9,2.5,3,5.5,3.3,8.6.1,1.6,0,3.2-.1,4.8,0,.4-.1.8-.2,1.2-.3,1-.7,1.9-1.2,2.8l-3.6,4.5c-.2.2-.3.3-.4.4-1.6,1.5-3.1,3.1-4.7,4.6l-.3.2c-1,.9-2,1.8-3.1,2.7l-.4.4-.3.2c-1,.8-2.1,1.6-3.1,2.3l-.7.5-.4.2c-1.5.9-3,1.9-4.5,2.7-5.1,2.7-10.5,4.9-16,6.6-7.5,2.1-15.1,3.5-22.9,3.9-32.2,2.4-63.4-9.9-84.3-34.9-9.9-11.8-16.9-26.2-17-41.9,0-4.8-10.3,3.5-11.2,4.3-3.1,2.7-5.8,5.6-8.3,8.9-1.3,1.8-3.5,4.4-3.4,6.8.4,31.6,25.6,58.3,52.9,70.9,30.6,14.2,68.1,11.7,97.5-4.4,13.5-7.4,25-17.8,35.8-28.5.7-.7,2.3-2.2,3.9-4,11.9-12.4,25.5-30.4,13.5-46.8Z"/>
  <path class="st0" d="M800.4,104.3c4.9,11.6,5.5,16.5,5.6,29.8l5.5-16.3-11.1-13.5Z"/>
</svg>