<?xml version="1.0" encoding="UTF-8"?>
<svg id="Layer_1" xmlns="http://www.w3.org/2000/svg" version="1.1" viewBox="0 0 752 750">
  <!-- Generator: Adobe Illustrator 30.1.0, SVG Export Plug-In . SVG Version: 2.1.1 Build 136)  -->
  <defs>
    <style>
      .st0 {
        fill: #fff;
      }
    </style>
  </defs>
  <path class="st0" d="M0,750V0h752v750H0ZM224,217.7c20.8-25,19.4-71.3-4.5-93.4-13.4-11-29.7-18.8-47.8-18.9l-93.1-.4v234.4s104.3-.3,104.3-.3c18.9,0,35.9-8.7,49.1-20.9,24.7-27.9,21.8-78.4-8-100.5ZM419.2,300.4l14.4,39,44.6-.2-84.9-234.3h-39.9c0-.1-84.9,234.3-84.9,234.3l44.5.2,14.7-39.1h91.3ZM674.4,300.8h-111.2c0,0,0-196,0-196h-39.7c0,0,0,234.6,0,234.6h150.8s0-38.5,0-38.5ZM229.2,582h-111s0-196,0-196l-39.7.3v234.5s150.9,0,150.9,0l-.2-38.8ZM411.6,581.8l14.3,39,44.6-.3-84.9-234.5h-39.8c0-.1-85,234.6-85,234.6h44.6c0,.1,14.5-38.9,14.5-38.9h91.6ZM519.1,600.1c13.6,12.2,30.6,20.3,49.5,20.4l103.2.3v-234.8s-88.7,0-88.7,0c-11.6,0-22.1,3.6-32.7,6.9-8.4,4.3-16.3,8.7-22.6,15.8-21,23.6-21.2,65.6-1.5,90.2-30.4,22.8-32.4,73.9-7.2,101.1Z"/>
  <path class="st0" d="M570.4,582c-11.9-.8-21.5-6.5-26.7-16.6-2.8-8.3-2.8-17.4,0-25.8,5.3-9.8,14.4-14.9,25.6-16.6h62.8s0,59,0,59h-61.6Z"/>
  <path class="st0" d="M579.5,484c-11.3-1.2-20.3-6.4-25.4-15.9-3.1-8.5-3.1-17.8-.2-26.4,5.1-9.9,14.4-14.8,25.4-16.6h52.8c0,0,0,59,0,59h-52.5Z"/>
  <path class="st0" d="M206.6,284.3c-5.5,10.5-15.2,15.6-26.7,16.5h-61.7s0-59,0-59h62.6c11.2,1.7,20.5,6.6,25.7,16.6,3,8.3,3,17.2,0,25.9Z"/>
  <path class="st0" d="M196.7,186.1c-5.2,10.4-14.7,15.6-25.8,16.7h-52.5s0-59,0-59h51.7c11.8,1.3,21.5,6.8,27,17.3,2.5,8,2.5,16.6-.2,25Z"/>
  <polygon class="st0" points="397.4 542.4 334.1 542.5 365.8 456.5 397.4 542.4"/>
  <polygon class="st0" points="405.2 261.2 341.8 261.2 373.5 175.3 405.2 261.2"/>
</svg>