<?xml version="1.0" encoding="UTF-8"?>
<svg id="Layer_1" xmlns="http://www.w3.org/2000/svg" version="1.1" viewBox="0 0 1000 1000">
  <!-- Generator: Adobe Illustrator 30.1.0, SVG Export Plug-In . SVG Version: 2.1.1 Build 136)  -->
  <defs>
    <style>
      .st0 {
        fill: #fff;
      }
    </style>
  </defs>
  <path class="st0" d="M985.8,529c-13.6-18.7-27.2-37.5-41.4-57.1-13.1,28.3-25.9,55.9-39.1,84.4,31-3.7,61.1-7.4,92-11.2-3.7-5.2-7-9.9-10.3-14.5.2-.3.5-.6.7-.9.8.4,1.8.6,2.2,1.2,3.3,4.4,6.7,8.8,9.6,13.5.8,1.3.4,3.8-.2,5.5-7.9,20.1-16,40.1-24,60.2-3.1,7.6-5.8,15.4-8.9,23-.4,1-1.8,2.1-3,2.3-25.1,4.3-50.2,8.6-75.3,12.8-4.3.7-8.7,1.2-12.9,2.2-2.8.7-4.6,0-6.6-2.2-12.7-14.4-25.5-28.6-38.7-42.4,4.8,6.7,9.5,13.4,14.4,20,6,8.3,12.1,16.5,18,24.8,1.8,2.5,3.6,3.5,6.6,3.5,28.6.7,57.2,1.7,85.8,2.6.7,0,1.4,0,2.7.1-5.2,7-10.1,13.8-15.1,20.4-11,14.8-22.4,29.3-32.9,44.4-2.7,3.8-3,9.6-3.6,14.5-3.1,23.3-5.8,46.6-8.8,70.4-1-.6-1.8-.9-2.5-1.5-21.6-19.6-43.4-39-64.6-59.1-6.9-6.5-12-14.9-18-22.3-10.5-13.1-21-26.1-31.5-39.1-.3-.4-.4-1-.6-1.5-.3.3-.7.6-1.1.9,12.4,21.6,24.8,43.3,37.9,66h-6.1c-29.9.5-59.8,1-89.6,1.6-2.7,0-4.3-.7-5.7-3.2-14.6-25.5-28.9-51.2-44-76.4-13.9-23.3-28.6-46-43.7-68.7,9.7,23.1,19.5,46.2,29.6,70.2-6.5-.6-12-1.1-17.5-1.7-15.7-1.6-31.3-3.3-47-5-10.6-1.1-21.3-2.2-31.8-3.5-1.5-.2-3.2-2.1-3.8-3.7-8.2-19-16.2-38.1-24.3-57.2-.6-1.4-1.3-2.8-2.5-4,2,6.9,4.1,13.8,6.2,20.8,4.3,14.1,8.6,28.2,13,42.2.9,2.8.4,4.6-1.5,6.8-12.5,14.1-24.8,28.5-37.1,42.7-.3.4-.6.8-.4,1.7,15.2-14.3,30.4-28.6,45.8-43.2,28.2,14.7,56.5,29.4,85.8,44.7-21.7,11.5-42.4,22.6-63.2,33.7,0,.2.1.4.2.6,22.2-7.2,44.4-14.4,67.3-21.8-.5,2.3-.8,4-1.3,5.7-8.3,27.3-16.5,54.6-24.9,81.8-.8,2.5-.5,4.4,1,6.7,16.7,24.5,33.3,49.1,50,73.6,1.5,2.1,1.6,3.7.5,6.2-11.4,27-22.7,54.1-33.9,81.1-1.1,2.7-2.6,3.9-5.4,4.3-28.5,4.5-57,9.1-85.5,13.7-1.4.2-2.7.2-4.9.3,8.7-24.6,17.1-48.7,25.6-72.8-.4-.2-.7-.4-1.1-.5-11.8,21.6-23.7,43.2-35.9,65.5-2.8-4.5-5.3-8.5-7.7-12.4-13.9-22.7-27.8-45.3-41.9-67.9-2-3.3-2.2-5.8-.2-9.3,11.8-21.4,23.4-43,35-64.5.2-.3.3-.7,0-1.5-1.1,1.4-2.2,2.8-3.3,4.3-13.8,19.8-27.6,39.5-41.3,59.4-.8,1.1-.9,3.2-.5,4.6,8.7,28.5,17.5,56.9,26.2,85.4.1.4.1.8.3,1.9-5.7-1.9-11.2-3.6-16.6-5.4-19.7-6.5-39.3-13.5-59.1-19.3-5-1.4-11,.3-16.4,1.4-21.8,4.4-43.5,9.2-65.2,13.8-.7.1-1.4,0-2.6.2,1.6-3.7,2.9-7.1,4.3-10.4,10.4-24.7,20.3-49.7,31.3-74.1,4.6-10.1,11.4-19.2,17.3-28.6,7.7-12.4,15.4-24.8,23.2-37.2.6-1,1.1-2.1,1.1-3.5-16.3,18.8-32.6,37.6-49.3,57-.9-2-1.6-3.4-2.1-5-10.3-28.2-20.4-56.5-30.8-84.8-1.1-3-.5-4.9,1.5-7.2,36.3-41.2,72.1-82.8,105-126.9.3-.4.6-.9.3-2-9,8.4-18,16.7-27,25.1-9.1,8.5-18.2,17-27.8,26.1-2.3-9.1-4.3-17.4-6.4-25.7-5.5-22.1-11-44.3-16.6-66.4-.8-3.2-.5-5.4,2.2-7.8,15.8-14.5,31.4-29.3,46.7-44.6-4.4,3.4-8.8,6.7-13.2,10.1-12.7,9.6-25.3,19.1-38,28.6-2.1,1.6-3,3.2-3.1,6-.4,29.1-1,58.2-1.5,87.3,0,2.1,0,3.5-2.7,4.4-28.7,9.8-57.4,19.8-86,29.7-.4.1-.8,0-2.3,0,6.5-22.6,12.8-44.9,19.2-67.2-.2,0-.5-.2-.8-.3-1.7,3.4-3.4,6.8-5,10.3-20.3,44.2-44.4,86.4-67.4,129.2-3,5.5-6,7-11.8,7.1-28,.9-56,2.2-84,3.5-2.6.1-4-.8-5.4-2.9-16.4-23.9-32.9-47.7-49.6-71.4-2.2-3.2-1.9-5.6-.5-8.9,11.2-26.3,22.1-52.7,33.2-79.1.6-1.4,1.3-2.8,2.3-4.8,16.2,20.7,32,40.9,47.7,61.1.3-.2.6-.4,1-.6-11.9-21.7-23.7-43.5-36.1-65.9h5.2c29.7,0,59.5,0,89.2.1,2.6,0,4.5-.5,6.4-2.7,19-21.8,37.7-44,57.5-65.1,11-11.7,23.9-21.6,36-32.1,7.2-6.2,14.5-12.2,21.8-18.3.8-.7,1.7-1.2,2.6-1.9-.3-.3-.5-.7-.8-1-3.7,2.2-7.4,4.4-11,6.6-15.5,9.3-30.6,19.3-46.5,27.8-28.2,15.3-53.3,35.2-80.2,52.5-3,2-5.2,2.1-8.3.6-26.1-11.8-52.4-23.5-78.6-35.2-1.6-.7-3.2-1.6-5.4-2.7,21.1-16,41.6-31.5,62.1-47-.1-.2-.3-.5-.5-.8-21.9,11.6-43.7,23.3-65.8,35.1-1-3.4-3-2.6-5.5-1.7-28,10-56,19.9-84.7,30.1.5-2.1,1-3.8,1.5-5.5,6.9-24.2,14.1-48.3,20.4-72.7,1.2-4.6-.8-10.3-1.9-15.3-5.2-21.9-10.6-43.8-15.9-65.6-.2-.8-.3-1.6-.5-3.1,3.4,1.2,6.2,2.2,9.1,3.4,25.1,9.8,50.2,19.5,75.2,29.3,2.9,1.1,5.2.9,7.9-.5,25.4-13.8,51-27.3,76.4-41,2.7-1.5,4.7-1.2,7.3.3,22.8,13.4,45.6,26.5,68.4,39.8.9.5,1.9,1,3.3.9-6.4-5.3-12.9-10.6-19.3-16-14.5-11.9-28.8-23.8-43.4-35.4-1.5-1.2-4.2-1.7-6-1.2-29.1,6.3-58.2,12.8-87.2,19.2-1.1.2-2.7-.1-3.5-.9-21.1-21.2-42.1-42.4-63.1-63.8-1.2-1.2-2.1-3.5-1.8-5.1,6.6-29.4,13.3-58.8,20.1-88.2.2-.8.6-1.6,1.1-3.2,19.5,17.5,38.6,34.8,57.8,52,.2-.2.5-.4.7-.6-15.6-19.5-31.1-38.9-47.2-59,8.1-1.5,15.4-2.9,22.7-4.1,23.7-4.1,47.4-8.2,71.1-12.5,2.9-.5,4.4.3,6.1,2.4,18,22.4,36.3,44.4,53.8,67.1,14.5,18.7,28.1,38,42.1,57,.5.7,1.2,1.4,2.4,1.7-9.8-20.6-19.7-41.3-29.9-62.8,4.8.7,8.9,1.3,12.9,1.9,23.2,3.7,46.3,7.4,69.5,11.1.5,0,1.1.4,1.6.4,10.1-1,11.9,5.4,13.3,13.8,4.1,25.6,8.9,51.2,13.6,76.7.3,1.8,1.6,4.2,3.1,5,15.7,8.3,31.5,16.3,47.4,24.3.4.2,1,.3,1.8,0-1.2-.8-2.3-1.6-3.5-2.4-13.6-8.9-27.2-17.8-40.8-26.5-3.1-2-4.2-3.9-4.1-7.7.6-27.1.9-54.2,1.3-81.3,0-3.4.3-6.8.4-11,23,13.3,45.2,26.1,67.4,39,.1-.2.3-.5.5-.8-8-6.5-16-12.8-23.8-19.5-34.1-29-70.5-54.9-106.7-81-2.4-1.7-3.1-3.5-2.9-6.4,1.2-15.8,2.2-31.6,3.4-47.4,1.1-14.8,2.2-29.5,3.5-45.6,22.3,14.5,44.1,28.7,65.8,42.8.1-.2.3-.4.5-.6-5.9-5.4-11.9-10.8-17.8-16.2-11.6-10.4-23.4-20.6-34.6-31.4-5.1-4.9-8.6-11.4-13-17-16.3-20.4-32.8-40.7-49.7-61.7,6.7-.5,12.7-1,18.8-1.4,20.5-1.4,41-2.5,61.5-4.6,4.9-.5,9.5-4.4,13.9-7.3,17.8-11.9,35.4-24,53-35.9,1.3-.8,2.5-1.7,4.7-3.2-.5,32.2-1.1,63.5-1.7,94.3,2,1.3,3.9,2.2,5.4,3.5,22,19.8,44,39.7,66,59.4,1.7,1.5,2.1,2.7,1.7,5.1-4.2,23.1-8.2,46.1-12.2,69.2-1.1,6.6-2.2,13.1-2.6,19.9.6-1.3,1.2-2.5,1.7-3.8,9.3-27.3,18.6-54.5,27.7-81.8.6-1.8.2-4.6-.7-6.2-15.4-24.3-31-48.5-46.7-72.6-2-3.1-2.2-5.4-.6-8.9,12.3-26.1,24.2-52.3,36.3-78.5.6-1.3,1.2-2.5,2.2-4.6,15.7,21.6,31,42.6,46.2,63.6.2-.1.5-.3.7-.4C500.6,45.6,489.3,23.1,477.7,0h5.1c28.9,1.1,57.7,2.3,86.6,3.2,5,.1,7.9,1.5,10.4,6.5,12.6,25.5,25.5,50.7,38.5,76,1.5,2.9,1.5,4.9-.2,7.7-14.6,24.2-28.6,48.8-43.5,72.7-12.2,19.6-25.4,38.5-38.2,57.8-.9,1.4-1.8,2.8-1.9,4.8,15.7-16.3,31.4-32.7,47.8-49.6,1.4,7.1,2.7,13.4,3.9,19.7,4.6,24.1,9.1,48.2,13.9,72.3.6,3.2-.4,4.2-2.7,5.6-24.7,14.5-49.3,29.1-74,43.6-2.6,1.5-3.6,3.3-4,6.3-3.1,26.6-7.3,53-9.6,79.6-2.2,26.3-8.8,51.8-12.2,78.9.8-1.5,1.3-2.3,1.6-3.1,16.9-49.9,37-98.5,57.8-146.8,1.2-2.8,2.8-4.1,5.7-4.5,26.6-4.1,53.2-8.4,79.9-12.6,3.6-.5,7.2-.9,11.7-1.5-9.1,25.1-17.9,49.5-26.7,73.9.2,0,.5.2.8.3,3.3-5.9,6.5-11.8,9.8-17.7,8-14.5,15.7-29.3,24.2-43.5,16.3-27.5,28.3-57.1,42.8-85.4,1.3-2.4,2.5-3.3,5.3-3.5,12.2-1.1,24.3-2.6,36.5-3.9,11.9-1.3,23.8-2.4,35.7-3.6,6.5-.6,13.1-1.3,20.5-2.1-10.3,24.3-20.2,47.9-30.2,71.5.3.1.5.3.8.5.7-1.1,1.5-2.3,2.2-3.4,11.2-18.1,22.3-36.3,33.9-54.1,3.3-5,8.3-8.7,12.2-13.3,17.5-20.5,34.9-41.1,52.4-61.6.3-.4.6-.9,1.5-2.1,2.2,9,4.3,17.1,6.3,25.3,4.3,17.8,8.2,35.8,13.2,53.4,1.5,5,6.1,9.4,9.9,13.4,14.7,15.8,29.6,31.3,44.4,47,1,1,1.8,2.1,3.3,3.8-6.9,1.1-13.2,2.2-19.5,3.3-23.2,3.7-46.4,7.4-69.6,11.2-1.1.2-2.4,1.3-3,2.3-16.1,25.7-32.2,51.5-48.1,77.4-1.5,2.4-3.3,2.6-5.6,2.6h-88.9c-13.5,24.4-26.8,48.5-40.1,72.6-1,1.7-2.2,3.4-2.8,5.2-1.9,6.2-6.5,7.5-12.3,7.7-19,.7-38,1.7-57,2.7-3.9.2-7.8.7-11.7,1.4,10.9.6,21.9,1.3,32.8,1.9,13.6.7,27.3,1.2,40.9,2.1,1.6,0,3.7,1.8,4.6,3.3,8.5,14.9,16.7,30,25,45,.7,1.2,1.4,2.5,2.7,3.4-2.1-4.9-4.2-9.9-6.3-14.8-5.4-12.4-10.7-24.7-16.2-37-1.1-2.5-.9-3.9,1.1-5.8,21.1-20.5,42-41,62.9-61.6,2.1-2.1,3.6-2.2,6.2-.9,26.6,13.4,53.2,26.6,79.8,39.9.7.3,1.4.9,3,1.9-20.3,11.3-40.2,22.4-60,33.4,0,.2.2.5.2.8,1.1-.3,2.1-.5,3.2-.8,18.7-6.4,37.5-12.8,56.2-19.4,3.2-1.1,5.2-.8,7.7,1.7,15.9,16.2,32,32.2,48,48.2,1.3,1.3,2.7,2.5,4.7,3.2-14.5-20.3-29-40.5-44-61.4,6.6-.9,12.4-1.7,18.2-2.5,25.2-3.1,50.3-6.1,75.5-9.3,3-.4,5,.2,6.8,2.8,12.9,18,25.9,35.9,38.9,53.9.6.8.9,1.8,1.4,2.8-.5.3-1,.7-1.5,1l-.2-.2ZM519.8,84.7c-18.7-25.9-36.6-50.6-54.9-75.9-12.7,27.6-25.1,54.4-37.8,82.1,31.2-2.1,61.5-4.1,92.8-6.2ZM48.4,266.4c-6.8,29.7-13.4,58.6-20.1,88.3,30.2-8.7,59.3-17,89.4-25.6-23.3-21.1-45.9-41.6-69.2-62.6ZM480.7,2.4c13.9,27.4,27.4,53.8,41.2,80.9,17.4-26,34.3-51.3,51.7-77.3-31.2-1.2-61.5-2.4-92.9-3.6ZM521.8,88.6c-14.6,27.8-28.9,54.9-42.8,81.4h89.6c-15.9-27.6-31.1-54.1-46.8-81.4h0ZM616.6,88.2c-14-27.5-27.4-53.9-41.2-80.9-17.3,25.9-34.2,51.2-51.7,77.3,31.4,1.2,61.6,2.4,92.9,3.5ZM899,557.5c-21.1-21.9-42.2-43.8-63.7-66.1-8.2,28.8-16.3,57.3-24.5,86.4,30.5-7,59.9-13.8,88.2-20.3ZM154.1,240.6c-30.9,5.4-60.8,10.7-91.5,16.1,19.3,23.9,37.9,46.9,56.8,70.4,11.6-29,23-57.3,34.7-86.5ZM570.6,168.3c15.6-26.2,30.7-51.5,46.1-77.5-31.2-1.2-61.6-2.4-92.8-3.5,15.7,27.3,31,53.8,46.7,81.1h0ZM213.1,312c-19.1-23.7-37.7-46.7-56.8-70.4-11.7,29.2-23,57.4-34.7,86.4,30.8-5.4,60.7-10.6,91.5-16.1ZM427.1,93.7c16.6,25.6,32.8,50.6,49.2,76,14.6-27.6,28.7-54.6,43.3-82.3-31.1,2.1-61.4,4.1-92.5,6.2ZM155.4,725.6h92.3c-14.6-26.4-28.9-52.2-43.6-78.7-16.4,26.5-32.4,52.3-48.8,78.7ZM120.4,332.4c-8.6,30.3-16.9,59.5-25.5,89.6,29.6-6.9,58.3-13.5,87.7-20.2-20.9-23.4-41.3-46-62.2-69.4ZM213.7,314.6c-31,5.5-60.8,10.7-91.4,16.1,21.1,23.5,41.5,46.2,62.2,69.3,9.8-28.7,19.3-56.5,29.2-85.5h0ZM151.2,726c-19.4-25-38.2-49-57.3-73.7-11.7,27.9-23.2,55.1-34.9,83.2,31-3.2,61.1-6.3,92.3-9.5h0ZM903.9,560.6c-10.2,29.8-20,58.5-30,88.1,29.9-5.3,58.8-10.3,88.6-15.5-19.7-24.4-38.8-48.2-58.5-72.5ZM942.3,470.8c-31,3.8-61.2,7.4-92.1,11.2,18,24.8,35.3,48.7,53,73.2,13.2-28.5,25.9-56.1,39-84.4ZM545,998c29.8-4.8,58.5-9.4,88.1-14.1-19.1-24.9-37.7-49.2-56.8-74.2-10.6,29.8-20.7,58.5-31.3,88.3ZM964.5,631.4c11.3-28.2,22.2-55.4,33.5-83.7-31,3.7-61,7.4-92,11.2,19.7,24.4,38.8,48.1,58.5,72.5h0ZM92.6,421.2c8.5-30,16.8-59.3,25.4-89.4-30.2,8.7-59.3,17-87.3,25,20.5,21.3,40.9,42.6,61.9,64.4h0ZM153.4,730c-13.6,28.2-26.8,55.5-40.4,83.7,30.2-1.5,59.5-3,89.7-4.5-16.5-26.6-32.7-52.4-49.3-79.2ZM618.6,821.4c-13.5,28.3-26.6,55.8-40.1,84.3,30.9-3.3,60.7-6.4,91.3-9.6-17.2-25.1-33.9-49.4-51.2-74.7ZM901.5,559.9c-30.5,7-60,13.8-90.2,20.8,20.4,22.8,40.2,44.7,60.2,67.2,10-29.4,19.9-58.2,30-88ZM482.1,908.9c16.4,26.6,32.3,52.6,48.6,79.3,14.4-26.7,28.5-52.6,42.9-79.3h-91.5ZM59,738.4c17.5,25,34.4,49.2,51.7,74.1,13.6-28.2,26.8-55.5,40.3-83.5-31,3.2-61,6.3-92,9.5h0ZM576,904.5c13.5-28.4,26.6-55.9,40.1-84.3-30.1,1.6-59.1,3.1-88.9,4.6,16.5,26.9,32.4,52.8,48.8,79.6ZM578.8,908.3c19.2,25,37.7,49.2,56.6,74,11.6-28.1,22.9-55.4,34.6-83.6-30.6,3.2-60.3,6.4-91.2,9.6ZM205,807.7c14.6-26.5,28.7-52.3,43.2-78.7h-92.2c16.4,26.4,32.5,52.2,49,78.7ZM573.6,905.9c-16.4-26.7-32.3-52.7-48.7-79.3-14.6,26.9-28.6,52.8-42.9,79.3h91.6ZM202.1,645.7h-92.4c14.6,26.4,28.9,52.2,43.6,78.8,16.4-26.4,32.3-52.1,48.8-78.8h0ZM808.6,576.5c8.2-29,16.2-57.3,24.5-86.6-25,8.6-49,16.9-73.4,25.3,16.4,20.6,32.4,40.6,48.9,61.3ZM569.9,754.1c16.1,20.8,31.7,41.1,47.8,62,8.7-29.1,16.9-57.1,25.5-86-25,8.1-48.9,15.9-73.4,23.9h0ZM186.8,400.5c25.3-7.4,49.7-14.6,74.8-22.1-15.3-21.4-30-42-45.2-63.2-10,28.8-19.7,56.6-29.6,85.2h0ZM615.5,817.8c-16.4-21.3-32-41.5-47.9-62.1-13.6,22.2-26.9,43.8-40.7,66.4,29.9-1.5,58.7-2.9,88.6-4.3ZM424.3,458.4c2.6,30.1,5.2,59,7.8,89.1,20.3-17.2,39.7-33.4,59.5-50.1-22.5-13.1-44.3-25.7-67.3-39ZM496,498.8c8.8,24.3,17.5,48.3,26.5,73,17.2-24.7,33.9-48.6,51-73h-77.4ZM284.7,653.6c-26.3-2.8-51.7-5.5-77.5-8.2,14.6,26.2,28.8,51.9,43.5,78.3,11.5-23.7,22.5-46.5,34-70.1ZM375,897.5c-11.5,27.8-22.8,55-34.3,82.7,25.7-5.5,50.3-10.7,75.4-16-13.8-22.3-27.2-44-41.1-66.7h0ZM565.9,751.5c-3.7-26-7.3-51.4-11-77.6-21.8,20.6-42.9,40.6-64.5,61,25.5,5.6,50.1,11,75.6,16.6ZM527,239.6c23.7,10.7,46.8,21.1,70.9,32-5.9-30-11.5-58.6-17.3-87.9-18.2,19-35.7,37.3-53.6,55.9ZM755.6,512.7c-4.2-26.2-8.3-51.5-12.4-77.4-21.5,21-42.1,41.2-63.4,62.1,25.8,5.2,50.5,10.2,75.8,15.3ZM568.8,750.9c22.8-12.2,45.1-24.2,68-36.5-26.7-13.8-52.6-27.4-79-41.2,3.7,26.2,7.3,51.5,11.1,77.6h0ZM506.5,418c-27.4,12.8-53.7,25.1-80.7,37.8,22.8,13.2,44.8,25.9,67.2,38.9,4.5-25.7,8.9-50.6,13.5-76.7ZM377.5,896.1c13.9,22.4,27.4,44.3,41.2,66.7,15.9-20.7,31.3-40.9,47.3-61.7-30-1.7-58.8-3.4-88.5-5.1h0ZM318.6,320.3c-29.4-4.6-58-9.1-87.4-13.7,11.3,23.7,22.2,46.5,33.5,70.1,18-18.9,35.6-37.3,53.9-56.5h0ZM825.8,474.4c-26.8-13.4-52.9-26.4-79.7-39.7,4.2,26.2,8.2,51.4,12.4,77.3,22.6-12.6,44.5-24.9,67.3-37.6ZM895,803c3.3-26.2,6.4-51.5,9.6-77.4-25.4,5.9-49.9,11.7-75.6,17.7,22.3,20.2,43.8,39.7,66,59.7ZM522.7,422.4c-9,24.8-17.6,48.6-26.4,72.8h77.2c-17-24.4-33.7-48.3-50.8-72.8ZM862,657.2c-11.3,28.1-22.3,55.2-33.5,83.1,25.5-6,50.3-11.8,75.7-17.7-14.1-21.9-27.7-43-42.1-65.4ZM757.4,517c-13.2,22.5-26,44.2-39.4,66.8,29.8-2,58.4-3.9,88.1-5.9-16.6-20.8-32.5-40.6-48.8-61ZM596.4,274.1c-24.1-10.9-47.2-21.3-70.7-31.9-1.8,26.1-3.4,51.5-5.2,77.6,25.4-15.3,50.2-30.3,75.9-45.7ZM522.1,239.2c-15.4-21.3-30.4-42-45.7-63.2-9.6,28.3-18.9,55.8-28.6,84.4,25.4-7.2,49.4-14.1,74.3-21.2h0ZM256.9,459.4c1.9-26.4,3.8-51.8,5.7-78-24.9,7.3-49.2,14.4-74.2,21.8,22.9,18.8,45.3,37.1,68.5,56.1ZM524.5,237.2c14.4-21.6,28.4-42.5,43-64.4-30.2.4-59,.9-88.6,1.3,15.4,21.3,30.2,41.8,45.6,63h0ZM337,410.4c-5.5-29.5-10.9-58.2-16.5-87.8-18.2,19.1-35.8,37.6-53.7,56.4,23.5,10.5,46.5,20.8,70.2,31.4ZM816,243.9c14.5,26.8,28.4,52.3,42.6,78.7,11.5-24,22.6-47,34-70.7-25.7-2.7-50.6-5.2-76.7-7.9h0ZM493.2,499.7c-19.9,16.8-39.3,33.2-59.3,50,28.9,7.8,56.8,15.3,85.7,23.1-8.9-24.6-17.6-48.5-26.4-73ZM895.3,253.3c-11.4,23.7-22.4,46.6-34,70.7,29.7-4.9,58.1-9.6,87.3-14.4-18.1-19.1-35.4-37.4-53.3-56.3ZM352.2,698.1c.5-30.1,1-59.1,1.6-89.1-21.6,14.6-42.6,28.9-64.1,43.4,21.2,15.5,41.5,30.3,62.5,45.7ZM322,57.3c21,15.4,41.4,30.5,61.8,45.4.4-.2.9-.3,1.3-.5V14.5c-20.9,14.2-41.7,28.3-63.1,42.8ZM287.8,655.1c-7.1,24.9-14.1,49.3-21.3,74.6,28.4-9.8,55.8-19.3,83.8-28.9-21.2-15.5-41.6-30.4-62.6-45.7h0ZM285.1,650.6c-6.3-25.4-12.5-50-18.8-75.4-19.7,22.8-38.7,44.7-58.1,67.2,25.9,2.8,51,5.4,76.9,8.2ZM489.8,737.6c11.7,27.7,23.1,54.8,34.8,82.5,13.8-22.5,27-44,40.4-66-25.4-5.6-49.9-11-75.3-16.6ZM24.4,504c21.5-14.7,42.5-29,64.3-43.9-27.9-10.7-54.9-21.1-82.7-31.7,6.2,25.7,12.2,50.3,18.3,75.6h0ZM25.9,506.6c21,15.4,41.4,30.3,62.3,45.6.7-30.2,1.3-59.4,2-89.5-21.8,14.9-42.7,29.2-64.3,44h0ZM320.1,59.7c-7.1,25.2-13.9,49.6-21,75.1,28.5-9.8,55.7-19.2,83.8-28.9-21.3-15.7-41.7-30.7-62.8-46.2ZM715.5,582.1c13.3-22.6,26.2-44.4,39.3-66.7-25.5-5.1-50.1-10.1-75.5-15.2,12.2,27.5,24,54.3,36.2,81.9h0ZM448.6,263.2c23.2,18.9,45.7,37.2,69,56.3,1.7-26.3,3.4-51.4,5.1-77.4-25.2,7.2-49.3,14.1-74,21.1ZM468.1,903.3c-16,20.9-31.3,40.9-47,61.3,24.5,8.2,48.4,16.2,73.1,24.4-8.8-28.8-17.2-56.7-26.1-85.7ZM335.6,413.2c-23.7-10.6-46.4-20.7-70-31.3-1.9,26.1-3.8,51.4-5.8,77.6,25.5-15.6,50.1-30.7,75.8-46.3ZM953.2,658.9c-30-1-58.7-1.9-88.4-2.9,14.4,22.2,27.9,43.3,41.9,65,15.6-20.7,30.8-41,46.5-62ZM269.3,574.7c6.4,25.5,12.5,50,18.7,75.1,21.4-14.5,42.3-28.6,63.9-43.2-27.7-10.7-54.7-21.1-82.6-31.9h0ZM874.7,173.1c-19.6,22.9-38.4,45-57.8,67.8,25.9,2.7,50.7,5.2,76.1,7.9-6.1-25.4-12.1-50.1-18.3-75.6h0ZM296.3,133.4c7.1-25.2,13.8-49.4,20.9-74.5-25.8,1.7-50.7,3.4-76.7,5,18.9,23.6,37,46.1,55.8,69.5ZM24.1,509.1c-7.3,25.3-14.3,49.6-21.5,74.7,28.2-9.9,55.4-19.5,83.5-29.3-21-15.4-41.2-30.1-62.1-45.4Z"/>
</svg>