<?xml version="1.0" encoding="UTF-8"?>
<svg id="Layer_1" xmlns="http://www.w3.org/2000/svg" version="1.1" viewBox="0 0 1499 300">
  <!-- Generator: Adobe Illustrator 30.1.0, SVG Export Plug-In . SVG Version: 2.1.1 Build 136)  -->
  <defs>
    <style>
      .st0 {
        fill: #fff;
      }
    </style>
  </defs>
  <path class="st0" d="M54,0c9.2,2.9,15.5,9.8,15.5,20v54.6c0,7.7,5.2,14.1,11.4,16.5s15.1,1.1,20.3-4.9L170.7,5.8c4.8-5.5,12.2-4.1,13.3-5.8h155l8.5,4.6,68.3,79.3c5.7,6.6,13.3,9.4,21.2,6.7s12.4-9.9,12.3-18.6V20c-.1-10.3,6.3-17.3,15.6-20h39c9.3,2.8,15.6,9.8,15.6,20.1v53.9c0,8.3,6.1,14.8,13.1,16.8,7.9,2.3,15-.7,20.5-7l63.6-74c4.3-5,8.2-8.1,14.2-9.9h154c2.3,2,8.3,0,13.8,6.4l68.5,79.2c5.2,6,12.8,8.2,20.2,5.6,6.2-2.2,11.9-8.4,11.9-16.2V20.1c0-10.2,6.3-17.2,15.6-20.1h47c7.5,2,11.3,6.9,15.5,13.8l98.6,162.7c1.7,2.8,6.9,4.5,8.7,2.6s3.1-6,3.1-9.1l-.9-75-.8-75c-.1-10.4,6.6-17.4,15.8-20h38c9.7,3,15.5,10.5,15.5,21v40c-.2,8.5,5.5,15.2,12.4,17.7s16.3,0,22.1-6.8l56.5-65.4c5.3-6.1,10.9-4.5,13.5-6.5h155c5.8,2,9.7,5.3,13.9,10.2l45.2,52.6c4.6,5.4,5.7,12.4,3.2,18.8s-8.1,11.2-15.4,11.3c-13.8.2-27,0-40.9-.7s-9.1-3.4-12.3-6.9l-43.5-47.2c-16.7-18.1-42.2-17.1-58.6.7l-90.7,98.1c3.1,5.2,5.9,9.3,9.6,13.8l88.5,106.3c14.9,17.9,42.6,16.8,57.1-.7l25-30.1c4.7-5.7,5.9-12.9,2.9-19.9-7.8-17.9-24.7-4.3-33.2-21.3-3.3-6.6-2.8-14.5,2.1-20.2l7.9-9.2c3-3.5,8.1-5.9,13.1-5.9h99c5.9,0,10.9,5.2,10.9,11.1v29.2c0,3.1-1.8,7.5-3.9,10.1l-73.6,93c-5.2,6.5-12,4.9-14.4,6.8h-1c.3,0-.7-1-1.9-1-43.9,0-94.8,0-140.7,0-5.5,0-10.1-2.7-13.1-6.4l-60.6-76.2c-5.3-6.7-12.8-9.5-20.9-7.1-6.9,2.1-13.3,8.4-13.4,16.7l-.4,57c0,6.7-7.2,15.5-14.1,15.5l-58,.2c-5.2,0-10.9-3.9-13.6-8.4l-65.9-108.7c-4.4-7.2-13.2-9.3-20.9-7.1-6.4,1.8-13.3,8.1-13.3,16.3l-.2,86.9c0,11.9-6.5,19.8-17.9,22h-34c-10.6-2.3-17.6-9.6-17.6-21v-76.9c0-6-4.4-11.4-9-13.1-4.7-1.8-12.1-.9-15.9,3.9l-77.8,97.8c-3.7,4.6-8.3,8.4-14.9,8.4h-133.4c-.9,0-2.7.9-2.4,1h-8c-1.6-1.6-9.2-.8-13.6-6.4l-71.6-90.2c-5-6.3-13.8-7.5-20.5-5s-12.4,9.2-12.5,17.6v63c0,11.4-7.1,18.8-17.7,21h-35c-10.7-2.1-17.7-9.6-17.8-21l-.2-64c0-8-5.8-14.2-12.2-16.5s-15.6-1.4-20.6,4.8l-71.6,90.3c-4.5,5.7-11.9,4.7-13.6,6.4h-6c.3,0-.7-1-2.1-1-40.8,0-91.7,0-134.4,0-6.5,0-11.2-2.2-14.8-6.7l-79.2-99.4c-3.9-4.8-11-5.8-15.9-4-4.7,1.7-8.9,7.1-9,13.2l-.2,77.9c0,12.4-8.5,18.1-18.4,20H18c-9-1.8-15.2-7.2-18-16V16C2.3,8.1,7.3,2.9,15,0h39ZM737.2,248.1l82.2-100.6c6-7.3,4.5-16.9-1.6-23.4l-82.3-88.6c-13.6-14.7-38.9-15.3-52.5-.3l-83.8,92c-5.9,6.4-5.1,16.9.2,23.4l80.1,96.9c14.7,17.8,42.7,18.9,57.6.7ZM233.3,251.1c14.2,17,41.2,13.9,54.6-2.2l81.5-98.3c5.6-6.7,6-17.3-.1-24l-82.1-89.8c-14.3-15.7-39.8-16.9-54.4-1l-89.6,97.2c-1.8,2-2.6,4.6-1,6.8l22.7,29.5,68.5,81.8Z"/>
</svg>