<?xml version="1.0" encoding="UTF-8"?>
<svg id="Layer_1" xmlns="http://www.w3.org/2000/svg" version="1.1" viewBox="0 0 1898 806">
  <!-- Generator: Adobe Illustrator 30.1.0, SVG Export Plug-In . SVG Version: 2.1.1 Build 136)  -->
  <defs>
    <style>
      .st0 {
        fill: #fff;
      }
    </style>
  </defs>
  <path class="st0" d="M980.2,150.4h-15V60.1h15v15h15.1v15h15v15h15.1v15.1h15v15h15.1v15.1h15v15h15.1V30h15.1v-15h-45.2v15h15v75.2h-15v-30.1h-15.1v-15h-15v-15h-15.1v-15h-15v-15h-60.2v15h15v120.4h-15v15h45.2v-15Z"/>
  <path class="st0" d="M1220.9,150.4h15.1v-15.1h15v-30.1h15.1v-45.1h-15.1v-15h-15v-15h-15.1v-15h-75.2v15h-15.1v15h-15.1v30.1h-15.1v45.1h15.1v15h15.1v15.1h15.1v15h75.2v-15ZM1160.7,150.4v-15.1h-15.1V45.1h15.1v-15h45.2v15h15v90.3h-15v15.1h-45.2Z"/>
  <path class="st0" d="M1326.1,105.3h-15v-15h15V30h45.2v45.1h-15.1v45.1h15.1v30.1h15.1v15h45.1v-15h-15v-15.1h-15.1v-30.1h-15v-30.1h15V30h-15v-15h-105.4v15h15.1v120.4h-30.1v15h75.2v-15h-15.1v-45.1Z"/>
  <path class="st0" d="M1431.4,165.5h120.4v-15h15.1v-15.1h15.1v-30.1h15.1v-45.1h-15.1v-15h-15.1v-15h-30.1v-15h-105.3v15h15.1v120.4h-15.1v15ZM1491.6,150.4V30h45.1v15h15.1v90.3h-15.1v15.1h-45.1Z"/>
  <path class="st0" d="M1672.1,150.4h-15V30h30.1v-15h-75.2v15h15.1v120.4h-30.1v15h75.2v-15Z"/>
  <path class="st0" d="M1732.2,15v15h-15.1v15h-15v90.3h15v15.1h15.1v15h75.2v-15h-45.2v-15.1h-15v-15h-15.1v-60.2h15.1v-30.1h45.1v-15h-60.2ZM1822.6,60.1V15h-15.1v45.1h15.1ZM1822.6,150.4v-15.1h-15.1v15.1h15.1Z"/>
  <path class="st0" d="M1040.3,328.5v45.1h60.2v-15h-15.1v-15.1h-15.1v-30.1h-15v-45.1h-15.1v-30.1h-15v-15.1h-15.1v15.1h-15v30.1h15v30.1h15.1v15h-60.2v30.1h-15.1v15.1h-15v15h45.2v-15h-15v-15.1h15v-15h60.2ZM980.2,283.4v15h15.1v-15h-15.1Z"/>
  <path class="st0" d="M1230.5,358.6h-45.2v-15.1h-15.1v-105.3h15.1v-15.1h-75.2v15.1h15v105.3h15.1v15.1h15v15h75.3v-15ZM1245.5,358.6v-30.1h15v-90.3h15.1v-15.1h-45.2v15.1h15.1v90.3h-15.1v30.1h15.1Z"/>
  <path class="st0" d="M1300.2,373.7h120.4v-15h15.1v-15.1h15.1v-30.1h15.1v-45.1h-15.1v-15h-15.1v-15h-30.1v-15.1h-105.3v15.1h15.1v120.4h-15.1v15ZM1360.4,358.6v-120.4h45.2v15h15.1v90.3h-15.1v15.1h-45.2Z"/>
  <path class="st0" d="M1565.7,358.6h-15.1v-120.4h30.1v-15.1h-75.2v15.1h15.1v120.4h-30.1v15h75.2v-15Z"/>
  <path class="st0" d="M1725.8,358.6h15.1v-15.1h15v-30.1h15.1v-45.1h-15.1v-15h-15v-15h-15.1v-15.1h-75.3v15.1h-15v15h-15.1v30.1h-15v45.1h15v15h15.1v15.1h15v15h75.3v-15ZM1665.6,358.6v-15.1h-15.1v-90.3h15.1v-15h45.2v15h15v90.3h-15v15.1h-45.2Z"/>
  <path class="st0" d="M1025.3,551.7h15v-15h-15v-30.1h-15.1v-30.1h-15v-45.1h-60.2v15h15v15.1h15.1v30.1h15v30.1h15.1v45.1h15v15h15.1v-30.1ZM1070.4,491.5v-30.1h15.1v-15.1h15.1v-15h-45.2v15h15v15.1h-15v30.1h15ZM1055.4,506.6h-15.1v15h15.1v-15Z"/>
  <path class="st0" d="M1175.7,566.8h-15v-120.4h30.1v-15h-75.3v15h15.1v120.4h-30.1v15h75.3v-15Z"/>
  <path class="st0" d="M1220.8,566.8h15.1v15h60.2v-15h15.1v-60.2h-30.1v-15h-30.1v-15.1h-15v-30.1h45.2v30.1h30.1v-45.1h-90.3v15h-15v60.2h30.1v15h30.1v15h15.1v30.1h-45.2v-15h-15.1v-15h-15v45.1h15v-15Z"/>
  <path class="st0" d="M1446.6,566.8h-45.1v-15h-15.1v-105.3h15.1v-15h-75.2v15h15v105.3h15.1v15h15v15h75.2v-15ZM1461.6,566.8v-30.1h15.1v-90.3h15v-15h-45.2v15h15.1v90.3h-15.1v30.1h15.1Z"/>
  <path class="st0" d="M1581.9,536.7v45.1h60.2v-15h-15.1v-15h-15.1v-30.1h-15v-45.1h-15.1v-30.1h-15v-15h-15.1v15h-15.1v30.1h15.1v30.1h15.1v15h-60.2v30.1h-15.1v15h-15.1v15h45.2v-15h-15.1v-15h15.1v-15h60.2ZM1521.7,491.5v15h15v-15h-15Z"/>
  <path class="st0" d="M1702.2,566.8v-120.4h15v-15h-60.2v15h15.1v120.4h-30.1v15h135.5v-30.1h-15.1v15h-60.2Z"/>
  <path class="st0" d="M1040.3,744.9v45.1h60.2v-15h-15.1v-15h-15.1v-30.1h-15v-45.1h-15.1v-30.1h-15v-15h-15.1v15h-15v30.1h15v30.1h15.1v15h-60.2v30.1h-15.1v15h-15v15h45.2v-15h-15v-15h15v-15h60.2ZM980.2,699.7v15h15.1v-15h-15.1Z"/>
  <path class="st0" d="M1160.7,729.8h-15.1v-15h15.1v-60.2h45.2v45.1h-15.1v45.1h15.1v30.1h15v15h45.2v-15h-15.1v-15h-15v-30.1h-15.1v-30.1h15.1v-45.1h-15.1v-15h-105.4v15h15.1v120.4h-30.1v15h75.3v-15h-15v-45.1Z"/>
  <path class="st0" d="M1250.8,639.5v45.1h15v-30.1h45.2v120.4h-30.1v15h75.2v-15h-15.1v-120.4h45.2v30.1h15.1v-45.1h-150.5Z"/>
  <path class="st0" d="M1476.6,774.9h-15v-120.4h30.1v-15h-75.2v15h15v120.4h-30.1v15h75.2v-15Z"/>
  <path class="st0" d="M1521.7,774.9h15.1v15h60.2v-15h15.1v-60.2h-30.1v-15h-30.1v-15h-15v-30.1h45.2v30.1h30.1v-45.1h-90.3v15h-15v60.2h30.1v15h30.1v15h15.1v30.1h-45.2v-15h-15.1v-15h-15v45.1h15v-15Z"/>
  <path class="st0" d="M1627.1,639.5v45.1h15v-30.1h45.2v120.4h-30.1v15h75.2v-15h-15.1v-120.4h45.2v30.1h15.1v-45.1h-150.5Z"/>
  <path class="st0" d="M1807.7,774.9h15.1v15h60.2v-15h15.1v-60.2h-30.1v-15h-30.1v-15h-15.1v-30.1h45.2v30.1h30.1v-45.1h-90.3v15h-15v60.2h30.1v15h30.1v15h15.1v30.1h-45.2v-15h-15.1v-15h-15v45.1h15v-15Z"/>
  <path class="st0" d="M0,781.3V23.7h23.7V0h71v24.4h24.3v23.2h23.3v23.8h23.8v23.8h22.6c2.1,8-1.1,16,2,23.8h21.7c1.9,8-.9,15.9,1.9,23.7h22.6v46.9h23.8v22.7h23.8v-47h23.7v-69.9c7.9-2,15.9,1.1,23.7-1.9v-46.7h23.1V0h94.7v47.4h23.8v47.5h23.8v71.1h23.8v71.1h23.8v70.1h46.9c0-8.3-.1-16.1,0-23.9.2-7.6-.8-15.4.8-23.5h22.9v-70.6h23.8v-71.1h23.8V47h23.8v-22.6c8-2.2,16,1.1,23.2-1.9V0h71v23.7h23.7v757.6h-23.7v23.7h-94.7v-23.7h-23.8v-47.5h-23.8v-23.8h-23.8v-23.8h-22.6c-2.2-8,1.1-16-2.1-23.8h-22.4v-46.9h-23.8v-22.8h-23.8v47h-23.8v71.1h-23.8v46.1c-7.9,2.2-15.9-1.1-23.2,1.9v46.2h-94.7v-47.4h-23.8v-47.5h-23.8v-71.1h-23.8v-71.1h-23.8v-70.1h-46.9v67.8c0,.5-.2,1-.5,1.5-.3.5-.7.8-1.6,1.8h-21.6v46.9h-23.8v71.1h-23.8v71.1h-23.8v22.6c-8,2.2-16-1.1-23.2,1.9v22.6H23.7v-23.7H0ZM616.1,616.1v22.5h22.8v-22.5c-8,0-15.7,0-23.9-.5v-47.4h-23.2v-70.6h-46.5v70.9h23.3v23.8h23.8v23.2c8.5,0,15.8,0,23.6.5h0ZM188.9,188.9v-22.5h-22.8v22.5c8,0,15.7,0,23.9.5v70.3c8,2,15.9-.9,23.7,2v45.7h46v-70.9h-23.3v-23.8h-23.8v-23.2c-8.5,0-15.8,0-23.6-.5ZM94.6,709.7h23.9v-70.6h23.9v-71.2h23.9v-69.9c8-2.1,16,1,23.8-2.1v-46.2h22.3v-71.2h-22.9v-71.2h-23.7v-70.6h-23.9v-71.2h-23.9v-71.3h-23.8v-46.3h-46v709.4h46.5v-47.5h0ZM710.9,710.2v47.1h46.1V47.8h-47v47.4h-23.2c-.2,23.9.2,47.3-.2,71.2h-23.7v70.7h-23.9v70.1c-8,2-16-1-23.9,1.9v69.9h-22.4v71.2h23.4v47.6h23.1c.6,23.9-.4,47.3.6,71.2h23.5v70.7h23.9v70.6h23.9ZM378.2,47.7v47.1h-23.3v47.6h-23.9v71.2h-23.3c0,8.4-.2,16.2,0,24,.2,7.6-.9,15.4.9,23.5h22.9v47h23.9v22.8c8.1,1.8,16-.9,23.9,1.7v22.6h23.3v23.9h23.9v47.6h22.6c2.2,8-1.1,16,2.1,23.8h22.4v23.3h23.9v22.7h23.9v-47.2h22.5v-94.3h-23.3v-71.2h-23.8v-71.2h-23.3v-70.6h-23.9v-47.6h-23.9v-46.7h-47.6ZM307.9,308.4h-23.9v46.9h-23.1v94.9h23.7v69.9c8,2.3,16-1.2,23.8,2.2v69.8h23.3v71.2h23.9v47.6h23.3c0,8.4-.2,16.2,0,24,.2,7.6-.9,15.4.6,22.2h46.9v-47h23.9v-46.4c8-1.9,16,1,23.9-1.9v-69.9h22.4v-47.6h-23.3v-47.6h-23.9v-23.8h-23.3v-23.3h-23.9v-23.9h-23.9v-22.5c-8-2.1-15.9,1-23.8-2v-46.3h-23.3v-23.9h-23.3v-22.7h0Z"/>
</svg>