<?xml version="1.0" encoding="UTF-8"?>
<svg id="Layer_1" xmlns="http://www.w3.org/2000/svg" version="1.1" viewBox="0 0 94.8 94.7">
  <!-- Generator: Adobe Illustrator 30.1.0, SVG Export Plug-In . SVG Version: 2.1.1 Build 136)  -->
  <defs>
    <style>
      .st0 {
        fill: #fff;
      }
    </style>
  </defs>
  <path class="st0" d="M60.5,78.7c2.2-.6,4.5-2.9,4.5-5.9v-35.6h-2c0-3.5.7-7,2-10.6h-1.7c-1.1,0-1.8.8-1.8,1.5s.2.7.3.9c-.9,0-1.7.8-1.7,1.6s.4,1.4,1.3,1.6c.2,0,.3,0,.4,0,0,.8-.6,1.6-1.3,1.6-.9,0-1.3-.7-1.6-1-.2.3-.6,1-1.5,1-.7,0-1.4-.6-1.4-1.6s0-.1,0-.2c.4.3.6.3.9.3.8,0,1.5-.7,1.5-1.6s-.7-1.6-1.7-1.6c.1-.3.3-.6.3-.9,0-.9-.7-1.5-1.8-1.5s-1.8.7-1.8,1.5.1.6.3.9c-1,0-1.7.6-1.7,1.6s.8,1.6,1.5,1.6.6,0,1-.4c0,1.1-.6,1.9-1.5,1.9-1,0-1.5-.7-1.8-1-.3.3-.8,1-1.8,1-.9,0-1.6-.8-1.5-1.9.4.3.6.4,1,.4.8,0,1.5-.7,1.5-1.6s-.7-1.6-1.7-1.6c.1-.3.3-.6.3-.9,0-.9-.6-1.5-1.9-1.5-1.2,0-1.8.7-1.8,1.5s.1.6.3.9c-1,0-1.7.6-1.7,1.6s.8,1.6,1.5,1.6.6,0,1-.4c0,1.1-.6,1.9-1.5,1.9-1,0-1.5-.7-1.8-1-.3.3-.8,1-1.8,1-.9,0-1.6-.8-1.5-1.9.4.3.6.4,1,.4.8,0,1.5-.7,1.5-1.6s-.7-1.6-1.7-1.6c.1-.3.3-.6.3-.9,0-.9-.7-1.5-1.8-1.5s-1.8.7-1.8,1.5.1.6.3.9c-1,0-1.7.6-1.7,1.6s.8,1.6,1.5,1.6.6,0,.9-.3c0,1.2-.6,1.8-1.3,1.8-.9,0-1.3-.7-1.5-1-.2.3-.7,1-1.6,1-.7,0-1.2-.7-1.3-1.6.1,0,.2,0,.4,0,.8-.2,1.3-.8,1.3-1.6s-.8-1.6-1.7-1.6c.1-.2.3-.5.3-.9,0-.8-.7-1.5-1.8-1.5h-1.7c1.3,3.7,1.9,7.1,2,10.6h-2v35.6c0,3,2.3,5.3,4.5,5.9,2,.6,12.6,2.7,13.2,2.8.6-.1,11.2-2.3,13.2-2.8ZM56.4,76.6c-.1-.2-.2-.5-.5-.5h0c.3.2.3.6.4.9h-1.1c0-.1,0-.3-.2-.5.4-.3.6-.6,1.1-.7.1,0,.2.1.3.2.2.1.3.3.5.7h-.4ZM62.4,70.9c-1,0-1.5-1.1-2.1-1.3,0,0,.1-.1.2-.3,0,0,0,0,0,0,.6.2,1.1.7,1.3.9.3.3.6.4,1,.5-.2.2-.6.2-.5.2ZM60.1,69c.2-.2.4-.4.6-.7,0,.2-.1.5-.2.7-.2.4-.4.5-.6.7-.3,0-.5-.1-.7-.2.4-.1.7-.3.9-.5ZM58.4,69.3h0c.2-.1.9-.2,1.3-.2-.1,0-.3.2-.4.2-.3,0-.6,0-.9,0ZM63.1,56.7c0,.5-.2,1-.4,1.6-.1.4-1,.5-1,.5,0,0,.1-.2.1-.3h-.1c-.1.4-.7.4-1.1.3,0-.3-.2-.5-.4-.6,0-.4.7-.8,1.1-.5,0-.2-.2-.3-.4-.3s-.6.2-.8.3c0-.2-.3-.3-.4-.3-.4,0-.9.4-.9.8,0,0-.2.1-.3.2,0-.2-.1-.4-.3-.5.1-.3.7-.6,1-.5h0c0,0,0-.1,0-.1.5-.6,1.1-.2,1.3-.6.2-.2,0-.6,0-.9,0-.2,0-.3,0-.4,0-.6-.2-1.2-.6-1.7-1.2-1.6-4-2.5-5.2-4.1-.1-.2-.2-.2-.4-.1-.2,0-.3,0-.5,0-.4,0-.8-.1-1.1-.4h0c.4.7,1.2.7,1.9.7l.4.5c-3.7,0-6.8,2.8-11,2.8s-.9,0-1.3,0c0,0,0-.2,0-.3,0-.2,0-.4,0-.6,0-.3.4-1.2.5-1.9h-.1c-.1.7-.7,1.3-.7,2.1s-.5.8-1.2,2c0-.2-.2-.3-.3-.4h0c.1.3.2.4.2.6,0,.6-.5,1.1-.5,1.7-.1-.2-.2-.4-.2-.7h-.1c0,0,0,.1,0,.2,0,.3-.3.7-.6,1-.5.4-1.3,2-2,2,0,0,0-.1,0-.2h-.1c-.2.4-.7.4-1.1.3,0-.4-.4-.6-.4-.6,0-.4.7-.8,1.1-.5,0-.2-.2-.3-.4-.3s-.5.1-.7.3c0-.2-.2-.3-.4-.3-.4,0-.9.4-.9.8,0,0-.3.2-.4.3,0-.2-.1-.4-.4-.5.2-.3.7-.6,1-.3,0,0,0-.2-.1-.2.1-.3.5-.5.8-.5s.5,0,.7.2c1.3-1.3,2.4-3.3,2.7-5.4-.2-.5-.4-1.1-.4-1.5s0-.5.3-.7h0c-.4.2-.6.7-.6,1.1-.4-.6-.4-1.3-.5-2h-.1c0,.3,0,.7-.3,1,0-.5-.5-.9-.5-1.4s0-.3.2-.5h0c-.3.3-.8.8-1.1.8,0,0,0,0,0-.1,0-.5-.5-.7-.6-.8,0,.4-.3.6-.6.5,0-.2,0-.4,0-.4-.1,0-.2,0-.3,0-.4,0-.6-.2-.6-.4,0-.2.2-.2.3-.2,1,0,2.1-.2,2.1-1.1s-.5-.7-.7-.7c-.7,0-1.6.8-2.4.8s-.9-.2-.9-.7c0-.1,0-.3.2-.3,0,0-.1,0-.2,0h.1c0,0,.2,0,.3,0s.3-.2.3-.3-.2-.4-.4-.3l.2.2h0c0,0-.1,0-.2,0-.2,0-.3.1-.2.4-.1-.1-.1-.3-.1-.4,0-.7,1.1-1.2,1.3-1.8.1-.5.2-1.2.8-1.4.4-.1.9-.8,1.4-.4h0c0-.2-.3-.3-.4-.3l.2-.5c0,.3.1.4.2.4.1,0,.3-.3.4-.5.4-.5.9-.4,1.3-.6,0,.1,0,.3,0,.4-.6,0-.9.5-.9,1s.1.6.4.8h0c-.1-.2-.2-.5-.2-.7,0-.4.2-.7.6-.7.3.3.4.6.4,1s-.2.8-.6,1h0c.6-.1.9-.6.9-1.1s-.2-.8-.5-1.1c.5-.5,1.3-.5,2-.6-.2.5-.5.8-.8,1h.2s.2-.1.2-.1c.5-.3.8-.4,1.1-.4s.7.2,1.3,0c0,.8-.8.7-1.1,1h0c.2,0,.3,0,.5,0,.4,0,.8.1,1.1.1s.4,0,.7-.2c0,0,0,.2,0,.3,0,.4-.5.7-.7.8h0c.3,0,.6,0,.8,0,.7,0,1.2.3,1.9.6,0,.3-.9.4-1.1.5h0c.9,0,1.6.4,2.5,1.3-.2.2-.5.2-.7.2s-.5,0-.7-.2h0c.5.3.6.6.6,1.1s0,.8.1,1c-.4-.1-.7-.4-.8-.8h-.1c.1.5.2,1,.2,1.4s0,.5-.1.8c0-.4-.3-.8-.7-1h0c.5.6.5,1.4.6,2.1.4-.5.6-1.1.6-1.7s0-.4,0-.6c.4.3.8.5,1.2.7-.2-.5-.5-.9-.5-1.4s0-.7-.1-.9c.8.3,2,.3,3.2.3s3.3-.1,4.3-.1c.5-.1,1.1-.2,1.6-.2,1.4,0,2.8.4,3.6,1.3,1.5,1.6,1,2.9,1.6,3.9.4.7,1.2,1.9,1.5,2,.2.1.8.3.9.7,0,.8,0,2.3.4,2.9.2.3.3.6.3.9ZM59.2,58.2c.1-.3.7-.7,1-.4-.1.1-.2.3-.2.5-.2.1-.3.2-.4.4,0-.2-.1-.3-.4-.4ZM59.4,58.8c0,0-.1,0-.2,0-.2,0-.5.1-.7.3,0-.4.3-.6.5-.8,0,0,0,0,0,0,.2,0,.3.3.3.5ZM60.1,58.4c.1,0,.2.1.2.4,0,0,0,0,0,0-.4,0-.6.3-.7.4,0-.5.4-.8.6-.8ZM58.4,58.5c0,0-.2,0-.3,0-.2,0-.4.1-.6.3,0-.3.4-.9.8-.7,0,0,.2.3.1.4ZM55.3,53.9c.2.1.4.2.4.7,0,.8-.6.8-1.1,1.7-.8,1.3-1.5,1.9-2.4,1.8h0c0,0-.1,0-.1,0-.1.4-.6.4-1,.4,0-.3-.2-.5-.4-.6,0-.4.7-.7,1-.5,0-.2-.2-.3-.4-.3s-.5.1-.7.3c-.1.1-.2.3-.2.5-.2.1-.3.2-.4.3,0,0,0-.1,0-.2,0,0-.1-.2-.3-.3.1-.4.7-.7,1-.4,0-.2-.2-.3-.4-.3s-.3,0-.5.1c-.2.1-.4.4-.4.7,0,0-.2.1-.3.2,0-.2-.2-.4-.4-.5.1-.3.7-.7,1.1-.4v-.2c0-.5.4-.6.8-.6s.6,0,1,0c.6,0,1.6-1.5,1.6-2.3s-.8-1.8-1-2.9c.9-.3,1.7-.6,2.4-.6s1,.1,1.4.5c-.5.4-.7,1.4-.7,2.1s0,.4,0,.6ZM50.8,58.3s0,0,0,0c-.4,0-.6.4-.7.4,0-.3.3-.8.6-.8.1,0,.2.1.2.4ZM49.8,58.3c0,0-.1,0-.2,0-.2,0-.5.2-.7.3,0-.3.2-.7.6-.8.2,0,.3.3.3.5ZM48.8,58.2c0,0-.2,0-.2,0-.2,0-.5,0-.6.3,0-.3.3-.6.6-.7.2,0,.4.3.3.5ZM46.1,57.2c0,.2,0,.5-.1.7-.2.5-1.3.5-1.9.6,0-.3-.2-.5-.4-.6,0-.4.7-.8,1-.5,0-.2-.2-.3-.4-.3s-.5.1-.7.3c0-.2-.2-.3-.4-.3-.3,0-.7.3-.9.6,0,.3-.3.3-.4.5,0-.2-.2-.5-.4-.5.2-.3.7-.6,1-.3,0-.1-.1-.3-.3-.3.1-.4.8-.4,1.2-.3.3-.1.4-.3.4-.6,0-.8-.9-1.9-1.2-2.6.7,0,2.1,0,2.6,0,.3.9.6,1.5,1,1.8,0,0-.1,0-.2,0-.2,0-.4-.1-.6-.2.2.3.6,1.2.6,2.1ZM42.6,57.8c0-.4.7-.7,1-.4-.1.1-.2.3-.2.5-.2,0-.3.2-.4.3,0-.2-.2-.3-.3-.4ZM42.8,58.3c0,0-.1,0-.2,0-.2,0-.5.2-.7.3,0-.4.3-.7.6-.8.2,0,.3.3.3.5ZM43.5,58c.1,0,.2.1.2.4,0,0-.1,0-.2,0-.3,0-.6.2-.7.3,0-.3.4-.7.6-.7ZM41.7,58.2c0,0-.2,0-.3,0-.2,0-.4,0-.6.2,0-.3.3-.6.6-.7.2,0,.4.4.3.5ZM35.1,58.3c0-.3.7-.8,1-.5-.1.1-.2.4-.3.5-.2.1-.4.3-.5.5,0-.2-.1-.4-.3-.6ZM35.1,58.9c0,0-.2,0-.2,0-.3,0-.6.2-.6.3,0-.3.3-.7.6-.8.2,0,.3.3.3.5ZM36,58.4s0,0,0,0c.2,0,.3.3.3.5,0,0,0,0,0,0-.3,0-.6.1-.8.3,0-.3.2-.6.5-.8ZM34.2,46.3c-.2.1-.3.3-.4.6v-.5c.2-.2.7-.3,1.1-.3s.8,0,1.1.1h0c-.4,0-.8,0-1.2.2-.2,0-.4.1-.6.2v-.3ZM34.3,47.1c-.1,0-.3,0-.4,0,0-.2,0-.4.2-.5,0,.1,0,.3.1.5ZM33.9,58.2c.2,0,.3.2.2.5-.1,0-.2,0-.3,0-.3,0-.5.1-.6.2,0-.3.3-.6.7-.6ZM33.7,46.7c-.2,0-.3-.2-.5-.4.1,0,.3,0,.4,0,0,.2,0,.3,0,.5ZM54.4,41c.2,0,.5,0,.7,0,.3,0,.7.1.8.5-.7,0-1.3.2-1.9.2s-.8-.1-1.3-.4c-.5-.3-1.3-.5-2.1-.5s-2.4.5-2.4,1.5,1.1,1.1,2.4,1.1c3.9,0,5.4-.8,8.1-.8s2.3.9,2.3,1.7-.8,1.8-2.4,1.8c-.2-.2-.4-.4-.6-.6,1.1,0,2.4-.4,2.4-1.3s-.6-1.1-1.9-1.1-5,.9-8,.9-3-.3-3-1.7,1.2-2.2,3.1-2.2,1.6.3,2,.3c.8,0,1.6-.6,2.4-.6s1,.3,1.4,1.1c-.4-.2-.9-.3-1.3-.3s-.6,0-.9.2h0ZM30.2,27h1.1c.8,0,1.2.6,1.2,1.2s-.2.9-.5,1.3c.3,0,.6,0,.7,0,.7,0,1.2.5,1.2,1.2s-.2,1.2-1.2,1.2-.3,0-.5,0c0,1.5.7,2.4,1.8,2.4.6,0,1.1-.2,1.6-.8.5.5,1.1.8,1.5.8,1.2,0,1.8-.9,1.8-2.1v-.9c-.3.3-.7.7-1.4.7s-1-.5-1-1.2.4-1.2,1.1-1.2.3,0,.7,0c-.3-.5-.4-.9-.4-1.4s.3-1.1,1.3-1.1,1.3.6,1.3,1.1,0,.8-.4,1.4c.5,0,.5,0,.7,0,.7,0,1.1.5,1.1,1.2s-.5,1.2-1.1,1.2-.7-.2-1.3-.7v.9c0,1.2.7,2.1,2,2.1.7,0,1.3-.2,1.8-.8.5.5,1.1.8,1.8.8,1.3,0,2-.9,2-2.1v-.9c-.4.4-.9.7-1.4.7s-1.1-.5-1.1-1.2.4-1.2,1.1-1.2.3,0,.8,0c-.3-.5-.5-.9-.5-1.4s.3-1.1,1.3-1.1c1,0,1.3.6,1.3,1.1s-.2.8-.5,1.4c.5,0,.6,0,.8,0,.7,0,1.1.5,1.1,1.2s-.5,1.2-1.1,1.2-1-.3-1.4-.7v.9c0,1.2.7,2.1,2,2.1.7,0,1.3-.2,1.8-.8.5.5,1.1.8,1.8.8,1.3,0,2-.9,2-2.1v-.9c-.7.5-.9.7-1.3.7s-1.1-.5-1.1-1.2.4-1.2,1.1-1.2.2,0,.7,0c-.3-.5-.4-.9-.4-1.4s.3-1.1,1.3-1.1,1.3.6,1.3,1.1-.1.8-.4,1.4c.5,0,.5,0,.7,0,.7,0,1.1.5,1.1,1.2s-.5,1.2-1,1.2-1.1-.4-1.4-.7v.9c0,1.2.7,2.1,1.8,2.1.4,0,1.1-.2,1.5-.8.5.5,1,.8,1.6.8,1.2,0,1.8-.9,1.8-2.4-.3,0-.5,0-.7,0-.8-.1-1-.7-1-1.2s.5-1.2,1.2-1.2.4,0,.7,0c-.3-.4-.5-1-.5-1.3,0-.6.5-1.2,1.2-1.2h1.1c-1.2,3.3-1.8,6.7-1.9,10.2h-30.4c0-3.5-.7-7-1.9-10.2ZM31.7,47.8h0c.6-.3,1-.8,1.5-1.2.1.2.3.2.5.3-.1,0-.2.2-.3.3-.3.4-.8.7-1.3.7s-.3,0-.5-.1ZM34.3,67.5c0,1.2-.2,1.5-1.3,1.7.3-.2.4-.4.3-.8.3-.3.4-.6.4-1h-.1c-.2.3-.3.8-.7.9.3-1.4.7-1.8,1.3-2.2.7-.4,1.2-.9,1.4-1.5.3-.7,0-1.8-.8-1.8s-.7.3-.7.6c0,.5.6.9,1.2,1.1,0,.2-.2.4-.2.4-.8-.3-1.4-.8-1.4-1.5s.5-1.1,1.2-1.1,1.4.6,1.3,1.5c0,.4,0,.6-.1,1,.5.2,1,.3,1.4.4-.2.1-.3.3-.5.4-.3,0-.8-.2-1.2-.3-.7,1.2-1.6.8-1.6,2.4ZM37.3,76.6c-.1-.3-.2-.7-.6-.7h0c.3.2.3.6.3.8h-1c0-.3,0-.6-.1-.8,0,0,.1,0,.2,0,.3,0,.6-.2,1-.2.3.2.4.7.4.9h-.1ZM42.1,75.6c0,0,0-.2,0-.3,0-1-1.9-1.1-2.3-2.1,1.3-.5,1.8-1.3,2-2,.2.1.5.2.9.4-.2,1.1-.6,1.5-.6,2s.2.8,1,1.6c-.2.1-.4.3-.5.5,0,0-.1.1-.2.2,0,0-.3-.1-.4-.2ZM44.1,76.2c-.1-.3-.4-.7-.8-.7h0c.4.2.4.6.5.9h-1.1c0-.1,0-.4-.1-.6.3-.1.6-.4,1-.5.3.1.6.5.7.9h-.2ZM42,70.8c0-.2,0-.3,0-.5,0-1-.3-2.1-.7-2.9h-.1c.3.9.5,1.7.5,2.5,0,1.9-1.1,3.5-3.9,3.3-.1,0-.2,0-.3,0-.6,0-.9.7-.9,1.4s0,.7.2,1c-.3,0-.6.4-.9.3,0,0-.1,0-.2,0-.1,0-.2,0-.3,0,.3-.7.3-1.4.3-1.9s0-.9,0-1.2c0-.5.1-.7.8-.7.4,0,.8-.7.8-1.2h0c-.1,0-.4,0-.7.2.2-.3.5-.7.6-.8h0c-.3,0-.5,0-.7,0,.3-.3.5-.5.6-1h0c-.2.2-.4.2-.6.3.1-.4.3-1,.3-1.3,0-2.5,1.8-3.3,3.8-3.3s1.3,0,1.9.2c.7-.2,3.3-.6,3.7-1.1,0,0,0,0,0-.1,0-.2-.3-.3-.5-.5.3-.3,1.2-.3,1.5-.5,0,0,0,0,0-.1,0-.4-.6-.6-.6-.6.3-.2,1-.4,1.7-.4s.7,0,.8.2h0c0,0-.6-.8-.6-.8.2,0,.5,0,.8,0,.7,0,1.6.1,2,.4h0c0,0-.5-.7-.5-.7,0,0,0,0,.1,0,.6,0,1.5.4,1.8.6l-.4-.7c0,0,.1,0,.2,0,.6,0,1.3.7,1.5.9h0c0,0,0-.7,0-.7.3.1.6.4.8.7-.3.5-.5,1-.4,1.5-.1.2-.3.5-.4.8l-.4-.7-.2,1.1-.3-.5c-.2.7-.8,1.5-.7,2.3h.1c0-.6.5-1.1.7-1.6.1.2.4.5.6.7,0-.3,0-.7,0-1.1,0,.1.2.2.3.2,0,0,.1,0,.2-.2,0-.2.1-.5.2-.6,0,.5.2,1.1.6,1.4h0c-.3-.5-.5-1.1-.5-1.6,0-.8.4-1.7,1.2-2,0,.2-.1.5-.1.7,0,.6.2,1.3.3,1.9-.5-.4-.7-1.1-.6-1.7h-.1c0,.2,0,.3,0,.5,0,.8.5,1.3.7,1.6,0,.1,0,.3,0,.4l.3.2c.1-.3.2-.5.2-.8,0-.6-.2-1.3-.1-1.8,1.3.6,2.7,2.2,3.4,3.4.4.7.9.8,1.6,1.1.6.2,1,1.2,1.9,1.1.1,0,.2.1.2.2,0,.4-.6,1.3-.9,1.4,0-.5,0-1,.5-1.2h0c-.8,0-.6.8-.8,1.3-.1,0-.6-.2-.8-.3,0,0,0-.1,0-.2.4-.7.1-1.2.1-1.2-.2.3-.5.7-.9,1.1-.6-.2-1-.6-1.7-.6s-.5.3-.5.6,0,.4.2.5c.3.2,1.7.4,2.3.6.2,0,.4.2.4.4s-.2.3-.6.3c-1,0-2.1-.6-2.8-.7-.6,0-1.2.2-1.7.2s-1.1-.1-1.5-.6h0c.4.5.9.8,1.5.8h0c0,.1-.8,0-.8,0l.2.6-1-.2.3.5s0,0,0,0c-.3,0-.6,0-.6,0-.2-.3-.3-.5-.3-.8,0-.6.4-1.1.4-1.7s-.2-.8-.8-1.2h0c.5.4.6.8.6,1.1,0,.7-.6,1.5-.4,2.2.4.7.7,1.4.9,2.1.4.9.8,1.8,1.8,2.5-.4.2-.6.5-.9.8-.1-.1-.3,0-.4,0,0-.9-1.5-2.1-3-2.6-.5-.1-1-.3-1.4-.5,0,0,0,0,0-.2,0-.1,0-.3-.2-.4-.1,0-1.1-.5-1.1-1,0-.8,0-1.6,0-2.5s0-.9-.2-1.4h-.1c0,.3,0,.7,0,1,0,.8-.1,1.6-.2,2.4-.9.2-1.8.4-2.7.4-1.3,0-2.6-.3-3.7-.9ZM46.6,75.5c.2-.6.4-1.3.4-2.1s0-.9-.3-1.4c.5,0,1.1-.2,1.6-.3,0,0,0,.1,0,.2,0,.2.2.6.5.8-.2.6-1,1.2-1,1.9s0,.4.2.6c-.4,0-.6.5-1,.4,0,0-.3-.1-.4,0ZM47.1,75.7s0,0,0,0c.4,0,.7-.3,1.2-.2.3.1.4.6.4.7h-.3c0-.3-.3-.6-.6-.5h0c.3.2.3.5.3.7h-1.1c0-.1,0-.5-.1-.7Z"/>
  <path class="st0" d="M39.2,45c0-1.4,0-2.4-1.7-2.7h0c.8.6,1.4.7,1.3,1.8-.3-.3-.7-.5-1.2-.5h0c1,.2.6,1.4,1.2,2-.4,0-.7-.2-1-.4h0c.5.7,1.2.8,1.9.9-.5-.5-.9-1.1-.9-1.7.1.1.4.4.5.6Z"/>
  <path class="st0" d="M57,66.5c.2,0,.5-.1.5-.5.2,0,.4,0,.5-.2h0c0,0,0,0,0,0-.2,0-.4-.1-.7-.1-.5,0-1.1.3-1.2.8.2-.1.4-.2.6-.3,0,.3.3.4.5.4ZM57.1,65.9c0,0,.1,0,.1.1s0,.1-.1.1-.1,0-.1-.1,0-.1.1-.1Z"/>
  <path class="st0" d="M34.1,43c0-.1.2-.3.4-.3,0,0,0,.1,0,.2,0,.2.1.3.3.3.2,0,.5-.2.4-.5h.6c-.2-.3-.5-.3-.8-.3-.5,0-1,.2-.9.7ZM34.8,43c0,0-.2,0-.2-.2s0-.2.2-.2.2,0,.2.2,0,.2-.2.2Z"/>
  <path class="st0" d="M48.4,12.1v-.4h-.8v-1h-.5v1h-.8v.4h.8v.9c-1,0-1.9.9-1.9,2s.3,1.3.9,1.6c-6.7.2-11.6,1.7-14.1,4.5-1.3,1.4-2.3,3.5-2.3,5h4.4c.5-3.2,3-6.1,6.1-6.7-2.1,1.5-2.8,3.9-2.8,6.7h4.7c0-.4,0-.9,0-1.4,0-1.8.4-3.6,1.2-4.4.6-.7,1.4-1,2.4-1.1,0,1.5-.1,3.2-.1,4.8s0,1.5,0,2.1h3.9c0-2,0-4.7-.1-6.9,1,0,1.8.4,2.4,1.1.8.9,1.2,2.7,1.2,4.4s0,.9,0,1.4h4.7c0-2.7-.8-5.2-2.8-6.7,3.1.6,5.7,3.5,6.1,6.7h4.4c0-1.5-1-3.6-2.3-5-2.5-2.8-7.4-4.3-14.2-4.5.6-.3.9-1.1.9-1.6,0-1.1-.8-1.9-1.9-2v-.9h.8ZM62.3,21.3c1.7,1.9,2.1,3.8,2.2,4.4h-3.5c-.1-1-1.6-6.1-7.6-6.8h-.4c2.4,1.2,3.7,3.3,3.8,6.8h-3.6c0-.9.2-3.9-1.3-5.7-.8-.9-1.8-1.2-3.2-1.2,0,1.2.1,3,.1,4.7s0,1.5,0,2.2h-2.9c0-.7,0-1.4,0-2.2,0-1.7,0-3.5.1-4.7-1.4,0-2.4.3-3.2,1.2-1.2,1.3-1.4,3.4-1.4,4.7s0,.8,0,1h-3.6c0-3.5,1.4-5.5,3.8-6.8h-.4c-6,.7-7.5,5.8-7.6,6.8h-3.5c0-.6.5-2.4,2.2-4.4,2.6-2.8,8-4.3,15-4.3s12.5,1.5,15.1,4.3ZM48.9,15c0,.9-.6,1.6-1.6,1.6s-1.6-.7-1.6-1.6.6-1.6,1.6-1.6,1.6.7,1.6,1.6Z"/>
  <path class="st0" d="M47.6,90.6c1.6-1.7,2.1-2.1,3.1-2.2v-.2s-2.8,0-2.8,0v.2c.7,0,.8,0,.8.3,0,.2,0,.3-.4.5l-2.1,2.1v-2.1c0-.8.3-.9.9-.9v-.2s-3.3,0-3.3,0v.2c.4,0,.8,0,.8.7v4.7c0,.6-.3.6-.9.7v.2s3.3,0,3.3,0v-.2c-.5,0-.9-.1-.9-.7v-1.9s.3-.2.3-.2l1.8,2.2c.2.2.2.3.2.4,0,.2-.2.2-.8.2v.2h3.3s0-.2,0-.2c-.2,0-.3,0-.5-.2l-3-3.7Z"/>
  <path class="st0" d="M57.6,87.3v-.2s-2.1.4-2.1.4v.2c.9-.1,1,.2,1.1.8l.5,2.9c.1.6.3,2.1-1.3,2.4-1.4.2-1.6-1.1-1.7-1.6l-.6-3.2c-.1-.8.1-.9.8-1v-.2s-3.3.6-3.3.6v.2c.6,0,.8,0,1,.7l.6,3.2c.2,1,.5,1.3,1,1.6.7.4,1.6.3,2,.3.6,0,1.4-.4,1.8-1,.3-.5.3-1.4.2-1.9l-.5-3c-.1-.6,0-.8.6-.9Z"/>
  <path class="st0" d="M64.1,85v-.2c0,0-2,.7-2,.7v.2c.8-.2,1.1,0,1.3.6l1,2.8h0s-4.6-2.8-4.6-2.8l-1.9.7v.2c.2,0,.4,0,1.1.4l1.5,4.3c.2.6,0,.8-.5,1v.2c0,0,2.2-.7,2.2-.7v-.2c-.8.2-1,0-1.3-.6l-1.3-3.7h0s5.8,3.5,5.8,3.5h.3c0,0-1.9-5.5-1.9-5.5-.2-.4-.2-.7.5-1Z"/>
  <path class="st0" d="M72.1,84.9v-.2c-.1,0-3,1.6-3,1.6v.2c.7-.3,1-.4,1.3.1l.5.9c.2.4.2.7-.5,1.1-1.6.9-2.8-1.2-3.2-1.8-.8-1.5-1.2-2.9,0-3.6,1-.5,2.2,0,2.9.6h.2c0-.1-1.1-2.1-1.1-2.1h-.2c0,.4,0,.6-.2.7-.2.1-1.1,0-1.9.5-1.8,1-2.2,3-1.3,4.7.8,1.5,2.6,2.5,4.7,1.3.7-.4,1.8-1.3,2-1.8l-.6-1.1c-.4-.7-.2-.8.3-1.2Z"/>
  <path class="st0" d="M77.2,81.3c.3,1.1.4,2.1-.8,3-.5.4-.7.5-1,.1l-2.8-3.6c-.5-.7-.3-.9.2-1.3v-.2c-.1,0-2.8,2.1-2.8,2.1v.2c.5-.2.8-.5,1.2,0l2.9,3.7c.4.5.2.7-.2,1.1v.2c.1,0,4.6-3.5,4.6-3.5l-1-2-.2.2Z"/>
  <path class="st0" d="M79.1,80.5c-.3.3-.3.8,0,1.2.3.3.8.3,1.2,0,.3-.3.4-.8,0-1.2-.3-.3-.8-.3-1.2,0Z"/>
  <path class="st0" d="M86.2,73.8h-4.7c-.3-2.2-.4-2.9.2-3.7h-.2c0-.1-1.7,2.1-1.7,2.1h.2c.5-.4.6-.4.8-.3.1.1.2.2.2.6l.4,3-1.6-1.3c-.7-.5-.5-.8-.2-1.2h-.2c0-.1-2,2.4-2,2.4h.2c.3-.2.6-.5,1.1,0l3.7,2.9c.5.4.3.6,0,1.1l.2.2,2-2.6h-.2c-.4.2-.6.5-1.1,0l-1.5-1.2v-.4s2.8,0,2.8,0c.2,0,.4,0,.5,0,.1,0,0,.3-.3.7h.2c0,.1,2-2.4,2-2.4h-.2c-.1,0-.2,0-.5,0Z"/>
  <path class="st0" d="M87.7,65.6c-1.9-1-3.8-.3-4.7,1.4-.9,1.6-.5,3.6,1.4,4.7,1.8,1,3.7.4,4.7-1.4,1-1.7.4-3.7-1.4-4.7ZM88.7,70.1c-.8,1.5-2.8.4-3.6,0-1.2-.7-2.6-1.8-1.9-3,.7-1.2,2.3-.7,3.6,0,.7.4,2.7,1.6,1.9,3Z"/>
  <path class="st0" d="M87.2,57.7h-.2c0,0-.7,1.9-.7,1.9h.2c.3-.6.7-.7,1.2-.5l2.8,1h0s-5,1.8-5,1.8l-.7,1.9h.2s.1-.2.9-.5l4.3,1.5c.6.2.6.5.5,1.1h.2c0,0,.7-2,.7-2h-.2c-.3.6-.5.7-1.2.5l-3.7-1.3h0s6.4-2.4,6.4-2.4v-.3c0,0-5.3-1.9-5.3-1.9-.4-.2-.6-.3-.5-1Z"/>
  <path class="st0" d="M92.4,53.7c-1-.2-1.7.4-2,.7l-1,1.3c-.6.7-.8.9-1.3.8-.6-.1-.8-.7-.7-1.2.2-1.1,1.4-1.5,2.1-1.5v-.3c0,0-2-.4-2-.4v.3c.1,0,.3.2.2.4,0,.3-.5.7-.6,1.4-.3,1.8.9,2.4,1.5,2.5.4,0,1.3.2,2.3-1.2l.4-.6c.4-.6.7-1,1.4-.8.1,0,1.1.2.8,1.4-.2,1.2-1.4,1.6-2.4,1.6v.3c0,0,2.3.4,2.3.4v-.3c0,0-.3-.1-.2-.3,0-.3.5-.7.6-1.6.3-1.8-.7-2.6-1.5-2.7Z"/>
  <path class="st0" d="M93.5,49.1l-5.1-.3c0-.7.2-1.7,1.7-1.8v-.3s-1.9,0-1.9,0l-.3,5.8h1.9c0,.1,0-.1,0-.1-1.5-.3-1.5-1.3-1.5-2l5.1.3c.8,0,.8.3.8,1h.2s.2-3.4.2-3.4h-.2c0,.7-.1.9-.9.9Z"/>
  <path class="st0" d="M87.7,39.2h-.2s.4,3.3.4,3.3h.2c0-.5,0-.9.6-1l2-.2.3,2.3-2,.2c-.6,0-.7-.4-.8-.8h-.2s.4,3.3.4,3.3h.2c0-.4,0-.9.6-.9l4.7-.5c.6,0,.7.2.8.7h.2s-.4-3.3-.4-3.3h-.2c0,.5,0,.9-.6,1l-2.2.3-.3-2.3,2.2-.3c.6,0,.7.3.8.8h.2s-.4-3.3-.4-3.3h-.2c0,.5,0,.9-.6,1l-4.7.5c-.6,0-.7-.4-.8-.8Z"/>
  <path class="st0" d="M88.6,31.7c-2,.6-2.9,2.5-2.3,4.3s2.2,2.9,4.3,2.3c2-.6,2.9-2.4,2.3-4.3-.6-1.9-2.3-2.9-4.3-2.3ZM92.6,34.1c.5,1.6-1.7,2.3-2.5,2.5-1.4.4-3.1.5-3.5-.8-.4-1.3,1.2-2.1,2.5-2.5.8-.2,3-.8,3.5.8Z"/>
  <path class="st0" d="M85.5,35.1c-.1-.3-.4-.5-.8-.4-.3,0-.5.5-.4.8.1.4.5.5.8.4.2,0,.6-.4.4-.8Z"/>
  <path class="st0" d="M85.7,37.8c.2,0,.5-.4.4-.8-.1-.3-.4-.5-.8-.4-.3,0-.5.5-.4.8.1.4.5.5.8.4Z"/>
  <path class="st0" d="M85.8,24.3h-.2c0,.1,1.5,3.1,1.5,3.1h.2c-.3-.7-.4-1,.2-1.3l.9-.5c.4-.2.7-.2,1.1.6.8,1.6-1.3,2.8-1.9,3.1-1.5.7-3,1.1-3.6-.2-.5-1,.2-2.2.8-2.9v-.2c-.1,0-2.1,1-2.1,1v.2c.4,0,.6,0,.7.2.1.2,0,1.1.4,1.9.9,1.9,2.9,2.4,4.6,1.5,1.5-.8,2.6-2.5,1.5-4.7-.4-.8-1.2-1.8-1.7-2.1l-1.1.6c-.7.4-.8.2-1.2-.3Z"/>
  <path class="st0" d="M82.4,21.3l.2,1.6c.1.9,0,1.2-.4,1.5-.5.4-1.1,0-1.4-.3-.7-.9,0-2.1.4-2.6l-.2-.2-1.7,1.2.2.2c.2,0,.3-.1.5,0,.2.2.2.8.6,1.4,1.1,1.5,2.3,1,2.8.7.4-.3,1-.7.7-2.6v-.7c-.2-.7-.3-1.2.2-1.6.1,0,.9-.6,1.6.4.7,1,.1,2.1-.6,2.8l.2.2,2-1.4-.2-.2c-.1,0-.3.1-.4,0-.2-.2-.2-.8-.7-1.5-1-1.5-2.3-1.3-3-.8-.9.6-.9,1.5-.8,1.9Z"/>
  <path class="st0" d="M74.7,16.7l-.2.2,1.9,2,.2-.2c-.5-.5-.5-.7-.3-.8.1-.1.3-.1.6-.1h3c0,0-1.5,1.5-1.5,1.5-.6.6-.8.4-1.2,0l-.2.2,2.3,2.4.2-.2c-.3-.3-.5-.6,0-1.1l3.4-3.2c.4-.4.7-.2,1.1.1l.2-.2-2.3-2.4-.2.2c.3.4.5.7,0,1.1l-1.4,1.3h-.4s.4-2.8.4-2.8c0-.2,0-.4.1-.5.1-.1.3,0,.7.4l.2-.2-2.2-2.4-.2.2c.1.1.2.3.2.5l-.6,4.7c-2.3,0-3,0-3.7-.7Z"/>
  <path class="st0" d="M71.1,10.2c-1.3,1.7-.8,3.7.7,4.8,1.5,1.1,3.5,1,4.8-.7,1.2-1.6.9-3.6-.7-4.8-1.6-1.2-3.6-.9-4.8.7ZM75.7,9.7c1.3,1,0,2.9-.5,3.5-.9,1.1-2.2,2.3-3.3,1.5-1.1-.8-.3-2.4.5-3.5.5-.7,1.9-2.5,3.3-1.5Z"/>
  <path class="st0" d="M65.7,6.1c.9-.8,1.8-1.2,3.1-.6.6.3.7.5.5.9l-2.1,4.1c-.4.8-.7.6-1.3.3v.2c-.1,0,2.9,1.6,2.9,1.6v-.2c-.3-.2-.6-.4-.3-1l2.2-4.2c.3-.5.5-.4,1.1-.2v-.2c.1,0-4.9-2.6-4.9-2.6l-1.4,1.8h.2Z"/>
  <path class="st0" d="M60.4,3.5l.4,5.5h.3c0,0,3.8-4.2,3.8-4.2.5-.6.7-.9,1.3-.8v-.2c0,0-1.8-.6-1.8-.6v.2c.2.1.7.3.5.7,0,.1-.3.5-.8,1l-2.1-.7c0-.3,0-1.1,0-1.4.1-.3.3-.3.9-.1v-.2c0,0-2.9-1-2.9-1v.2c0,0,0,0,0,0,.4.1.4.5.5,1.6ZM63.7,5.4l-1.6,1.9-.2-2.5,1.8.6Z"/>
  <path class="st0" d="M53.1,6.8c-.8-.2-.8-.5-.7-1.1l.5-2.9h0s2.6,4.6,2.6,4.6l2,.3v-.2c0,0-.2,0-.7-.8l.8-4.5c.1-.6.4-.7,1-.6v-.2s-2.1-.4-2.1-.4v.2c.7.2.8.4.7,1.1l-.6,3.8h0S53.1.2,53.1.2h-.3s-1,5.6-1,5.6c0,.5-.2.7-.9.6v.2s2,.3,2,.3v-.2Z"/>
  <path class="st0" d="M41.1.9l2.1,2.6c-.5.2-1.5.6-1.4,1.8.1,1.6,2.2,1.6,2.8,1.5l3.1-.2v-.2c-.6,0-.9,0-.9-.8l-.3-4.3c0-.8.1-.8.8-.9v-.2s-3.3.2-3.3.2v.2c.7,0,.9,0,.9.8v1.9c.1,0-.1,0-.1,0l-2.2-2.9h-2c0,.1,0,.4,0,.4.1,0,.3,0,.4.2ZM45.1,3.5l.2,2.5c0,.3,0,.4-.6.4-.8,0-1.2-.3-1.3-1.3,0-1.3.4-1.5,1.7-1.6Z"/>
  <path class="st0" d="M38,7.9c1.8-.4,3-2.1,2.5-4.1-.5-2-2.2-3-4.1-2.6-1.9.5-3,2.2-2.5,4.1.5,2.1,2.3,3,4.1,2.6ZM36.4,1.5c1.6-.4,2.2,1.8,2.4,2.6.3,1.4.4,3.1-.9,3.4-1.3.3-2.1-1.3-2.4-2.6-.2-.8-.7-3.1.9-3.4Z"/>
  <path class="st0" d="M28.6,5.2l.7,1.6-.5,3.5c0,.4-.3.5-.5.6v.2c0,0,2.1-.8,2.1-.8v-.2c-.5.2-.9.3-1,0-.1-.2,0-.9,0-1l.3-2.1,2,1.6c.1.1.4.3.4.4.1.2,0,.3-.6.6v.2c0,0,3.1-1.3,3.1-1.3v-.2c-.6.2-.9-.1-1-.2l-2.9-2.3-.6-1.3c-.3-.7-.1-.9.5-1.2v-.2c0,0-3.2,1.3-3.2,1.3v.2c.7-.2.9-.3,1.3.5Z"/>
  <path class="st0" d="M20.6,8.5c.4-.2.7,0,1.6.6l4.5,3.3h.2c0-.1-.9-5.8-.9-5.8-.1-.8-.2-1.1.2-1.5v-.2c-.1,0-1.8,1-1.8,1v.2c.4-.2.8-.4,1,0,0,.1.1.6.3,1.3l-1.9,1.1c-.3-.2-.9-.7-1-.9-.2-.3,0-.4.5-.7v-.2c-.1,0-2.8,1.6-2.8,1.6v.2c.1,0,.2,0,.2,0ZM25.8,7.9l.4,2.5-2-1.5,1.6-1Z"/>
  <path class="st0" d="M16.5,14.4c-.4-1.1-.5-2.1.7-3,.5-.4.7-.5,1-.1l2.9,3.5c.5.7.3.9-.2,1.3l.2.2,2.6-2.2-.2-.2c-.4.3-.7.5-1.1,0l-3-3.6c-.4-.5-.2-.7.2-1.1l-.2-.2-4.3,3.6,1.1,1.9.2-.2Z"/>
  <path class="st0" d="M11.2,18.3l3.6,3c.5.4.2.8,0,1.1l.2.2,2.2-2.6-.2-.2c-.3.3-.6.7-1.1.2l-3.6-3c-.5-.4-.2-.7,0-1.1l-.2-.2-2.2,2.6.2.2c.4-.4.6-.7,1.1-.3Z"/>
  <path class="st0" d="M10.9,28.3h.2c0,.1,1.1-1.6,1.1-1.6h-.2c-.5.5-.8.4-1.3.1l-2.5-1.6h0s5.3-.6,5.3-.6l1.1-1.7h-.2c0,0-.2,0-1,.2l-3.9-2.5c-.5-.3-.5-.6-.2-1.1h-.2c0-.1-1.2,1.7-1.2,1.7h.2c.5-.4.7-.5,1.3-.1l3.3,2.1h0s-6.8.8-6.8.8v.2c-.1,0,4.7,3.1,4.7,3.1.4.2.6.4.2,1.1Z"/>
  <path class="st0" d="M4.9,30.9c1,.4,1.8,0,2.1-.2l1.2-1c.7-.6,1-.7,1.5-.4.6.3.6.9.4,1.3-.5,1-1.7,1.1-2.4,1v.2c-.1,0,1.8.9,1.8.9v-.3c0-.1-.1-.2,0-.4.1-.3.6-.5.9-1.2.8-1.7-.3-2.5-.9-2.7-.4-.2-1.2-.5-2.6.7l-.5.5c-.5.5-.9.8-1.5.5-.1,0-1-.5-.5-1.5.5-1.1,1.7-1.2,2.7-1v-.3c.1,0-2.1-1-2.1-1v.3c0,0,.2.2,0,.4-.1.3-.6.5-1,1.4-.7,1.6,0,2.7.9,3Z"/>
  <path class="st0" d="M2.8,35.2l4.9,1.4c-.2.6-.6,1.6-2.1,1.3v.3c0,0,1.8.5,1.8.5l1.6-5.6-1.9-.6v.3c1.4.6,1.1,1.6,1,2.3l-4.9-1.4c-.8-.2-.7-.5-.6-1.2h-.2c0,0-1,3.3-1,3.3h.2c.2-.6.3-.8,1.1-.6Z"/>
  <path class="st0" d="M1.4,40.8l4.6.7c.7.1.6.6.5,1h.2s.5-3.3.5-3.3h-.2c0,.4-.2.8-.8.7l-4.6-.7c-.6,0-.6-.5-.5-1h-.2s-.5,3.3-.5,3.3h.2c.1-.5.2-.9.8-.8Z"/>
  <path class="st0" d="M1.2,46.5l5.1.2c0,.7-.2,1.7-1.7,1.8v.3s1.9,0,1.9,0l.2-5.8h-1.9c0-.1,0,.2,0,.2,1.5.3,1.6,1.3,1.6,1.9l-5.1-.2c-.8,0-.8-.3-.9-1h-.2s-.1,3.5-.1,3.5h.2c0-.7.1-.9.9-.9Z"/>
  <path class="st0" d="M3.1,55.6l3.1-.4c.6,0,.8.1.9.6h.2s-.3-2.1-.3-2.1h-.2c0,.9-.2,1-.8,1.1l-2.9.4c-.6,0-2.1.2-2.3-1.5-.2-1.4,1.2-1.6,1.7-1.6l3.2-.4c.8-.1.9.2,1,.8h.2s-.4-3.3-.4-3.3h-.2c0,.6,0,.8-.8.9l-3.2.4c-1,.1-1.3.4-1.7.9-.5.7-.4,1.6-.4,2,0,.6.4,1.4.9,1.8.5.4,1.4.4,1.9.3Z"/>
  <path class="st0" d="M3.2,61.2l4.9-1.4c.2.7.4,1.6-1,2.2v.3c0,0,1.9-.6,1.9-.6l-1.6-5.6-1.9.5v.3c1.6-.2,2,.7,2.2,1.3l-4.9,1.4c-.8.2-.9,0-1.1-.7h-.2c0,0,1,3.4,1,3.4h.2c-.2-.8-.2-1,.6-1.2Z"/>
  <path class="st0" d="M4.8,67.5c-.3-.6-.2-.8.1-1l2.1-1c.4.9.4,1.4-.7,2.1v.2c.1,0,3.1-1.4,3.1-1.4v-.2c-1.2.4-1.7,0-2.1-.8h0s2-1,2-1c.4-.2.5,0,.7.4.6,1.2.6,1.9-.5,2.7v.2c.1,0,1.9-.8,1.9-.8l-2.4-5.1h-.2c.2.5.3.9-.3,1.2l-4.2,2c-.5.3-.7,0-1-.5h-.2c0,.1,2.4,5.2,2.4,5.2l2-.5v-.2c-1.7,0-2.4-.7-2.8-1.6Z"/>
  <path class="st0" d="M15.6,72.8c-1.2-1.5-3.2-1.9-4.8-.5-1.6,1.3-1.8,3.3-.5,4.8,1.2,1.6,3.2,1.8,4.8.5,1.7-1.3,1.7-3.4.5-4.8ZM14,76.2c-.7.5-2.5,1.9-3.5.6-1-1.3.7-2.8,1.4-3.3,1.1-.9,2.7-1.7,3.5-.6.8,1.1-.3,2.4-1.4,3.3Z"/>
  <path class="st0" d="M19.9,78c1.2,1.1,1,1.8.5,2.6l.2.2,1.3-1.4-4.1-3.7-.2.2c.3.3.6.6.2,1.1l-3.2,3.5c-.4.4-.6.3-1.1,0l-.2.2,2.6,2.4.2-.2c-.5-.5-.8-.8-.3-1.2l1.5-1.7c.9.8.5,1.5,0,2.1l.2.2,2.2-2.4-.2-.2c-.6.5-1.2.9-2,0h0s1.5-1.7,1.5-1.7c.3-.3.4-.2.8.1Z"/>
  <path class="st0" d="M26.4,82.3h-.2c0-.1-4.6,3.3-4.6,3.3-.6.5-.9.7-1.4.5v.2c-.1,0,1.6,1,1.6,1v-.2c-.1-.2-.5-.5-.3-.8,0-.1.4-.4,1-.9l1.9,1.1c0,.3-.1,1.1-.3,1.3-.2.3-.3.2-.9,0v.2c-.1,0,2.6,1.6,2.6,1.6v-.2c.1,0,0,0,0,0-.4-.2-.3-.6-.2-1.7l.8-5.5ZM24.4,86.2l-1.6-1,2-1.6-.4,2.5Z"/>
  <path class="st0" d="M31.9,85.2l-2.9-1.2v.2c.4.2.7.4.4,1.1l-1.6,4c-.3.7-.5.7-1.1.5v.2c0,0,2.9,1.2,2.9,1.2v-.2c-.5-.3-.7-.4-.4-1.1l.7-1.8h.2c0,0,.7,3.7.7,3.7l1.8.7v-.2s-.1-.1-.2-.3l-.8-3.3c.5,0,1.6.1,2-1,.6-1.5-1.3-2.4-1.9-2.6ZM32.3,87.2c-.5,1.2-1,1.2-2.2.7l.9-2.3c.2-.3.2-.4.7-.2.7.3.9.8.6,1.7Z"/>
  <path class="st0" d="M34.6,88.3h.3c.5-1.4,1.5-1.2,2.2-1.1l-1.2,5c-.2.8-.4.8-1.1.7v.2c0,0,3.3.8,3.3.8v-.2c-.6-.2-.9-.3-.7-1.1l1.2-5c.6.2,1.6.5,1.4,2h.3c0,0,.4-1.8.4-1.8l-5.7-1.3-.5,1.9Z"/>
</svg>