<?xml version="1.0" encoding="UTF-8"?>
<svg id="b" xmlns="http://www.w3.org/2000/svg" version="1.1" viewBox="0 0 520 174.9">
  <!-- Generator: Adobe Illustrator 30.1.0, SVG Export Plug-In . SVG Version: 2.1.1 Build 136)  -->
  <defs>
    <style>
      .st0 {
        fill: #fff;
      }
    </style>
  </defs>
  <g id="c">
    <path class="st0" d="M307.1,1.7c0-.1,0-.3,0-.4h0c-.1,0-.2,0-.4,0-.2,0-.4,0-.6,0-1,0-2.3-.1-3.7-.1s-2.9,0-3.9.1h-.4c-.1,0-.3,0-.4,0h0c0,.1,0,.2,0,.4,0,0,0,.1,0,.2,0,1-.1,30.7-.1,32.3s0,31.4.1,32.4c0,0,0,0,0,.1,0,.1,0,.3,0,.4h0c.1,0,.2,0,.4,0,.4,0,.8,0,1.2,0,.9,0,2,0,3.1,0s3,0,4-.1c.1,0,.2,0,.3,0,.1,0,.3,0,.4,0,0-.1,0-.2,0-.4,0,0,0,0,0-.1,0-1,.1-30.8.1-32.4s0-30.9-.1-31.8c0-.2,0-.5,0-.7h0Z"/>
    <path class="st0" d="M279.7,1.7c0-.1,0-.3,0-.4h0c-.1,0-.2,0-.4,0-.2,0-.4,0-.6,0-1,0-2.3-.1-3.7-.1h-43.2c-1.6,0-2.9,0-4,.1-.1,0-.3,0-.4,0-.1,0-.3,0-.4,0h0c0,.1,0,.2,0,.4,0,0,0,.1,0,.2,0,1,0,63.7,0,64.7,0,0,0,0,0,.1,0,.1,0,.3,0,.4h0c.1,0,.2,0,.4,0,.4,0,.8,0,1.2,0,.9,0,2,0,3.1,0s3,0,4-.1c.1,0,.2,0,.3,0,.1,0,.3,0,.4,0,0-.1,0-.2,0-.4,0,0,0,0,0-.1,0-1,.1-46.6.1-55.7,7,0,26.5,0,33.5,0,0,9.2,0,54.7,0,55.7,0,0,0,0,0,.1,0,.1,0,.3,0,.4h0c.1,0,.2,0,.4,0,.4,0,.8,0,1.2,0,.9,0,2,0,3.1,0s3,0,4-.1c.1,0,.2,0,.3,0,.1,0,.3,0,.4,0,0-.1,0-.2,0-.4,0,0,0,0,0-.1,0-1,.1-63.3,0-64.2,0-.2,0-.5,0-.7h0Z"/>
    <path class="st0" d="M520,2.4c0-.2,0-.5,0-.7,0-.1,0-.3,0-.4h0c-.1,0-.2,0-.4,0-.2,0-.4,0-.6,0-1,0-2.3-.1-3.7-.1h-43.2c-1.5,0-3,0-4,.1-.1,0-.3,0-.4,0-.1,0-.3,0-.4,0h0c0,.1,0,.2,0,.4,0,0,0,.1,0,.2,0,1,0,63.7,0,64.7,0,0,0,0,0,.1,0,.1,0,.3,0,.4h0c.1,0,.2,0,.4,0,.4,0,.8,0,1.2,0,.9,0,2,0,3.1,0s3,0,4-.1c.1,0,.2,0,.3,0,.1,0,.3,0,.4,0,0-.1,0-.2,0-.4,0,0,0,0,0-.1,0-.8.1-19,.1-27.8,6.5,0,26.8,0,33.3,0,0,8.8,0,27,.1,27.8,0,0,0,0,0,.1,0,.1,0,.3,0,.4h0c.1,0,.2,0,.4,0,.4,0,.8,0,1.2,0,.9,0,2,0,3.1,0s3,0,4-.1c.1,0,.2,0,.3,0,.2,0,.3,0,.4,0,0-.1,0-.2,0-.4,0,0,0,0,0-.1,0-1,0-63.3,0-64.2h0ZM476.9,29.1c0-4.9,0-12.4,0-18.2,6.4,0,27,0,33.4,0,0,5.9,0,13.3,0,18.2-6.5,0-26.9,0-33.3,0h0Z"/>
    <path class="st0" d="M67.1,1.7c0-.1,0-.3,0-.4-.1,0-.2,0-.4,0,0,0,0,0-.1,0-1,0-64.3-.1-65.2,0-.2,0-.5,0-.7,0-.1,0-.3,0-.4,0H.2c0,.1,0,.2,0,.4,0,.2,0,.4,0,.6C0,3.4,0,4.7,0,6.1s0,2.9.1,3.9c0,.1,0,.3,0,.4,0,.1,0,.3,0,.4h0c.1,0,.2,0,.4,0,0,0,.1,0,.2,0,.8,0,19,.1,28,.1,0,9.1,0,54.7,0,55.6,0,0,0,0,0,.1,0,.1,0,.3,0,.4h0c.1,0,.2,0,.4,0,.4,0,.8,0,1.2,0,.9,0,6.1,0,7.1,0,.1,0,.2,0,.3,0,.2,0,.3,0,.4,0,0-.1,0-.2,0-.4,0,0,0,0,0-.1,0-1,.1-46.7,0-55.7,9,0,27.2,0,28-.1,0,0,0,0,.1,0,.1,0,.3,0,.4,0h0c0-.1,0-.2,0-.4,0-.4,0-.8,0-1.2,0-.9,0-1.9,0-3.1s0-3-.1-4c0-.1,0-.2,0-.3h0Z"/>
    <path class="st0" d="M138.2,1.5c0-.1,0-.3,0-.4,0,0-.2,0-.3,0,0,0,0,0,0,0-.7,0-46.5-.1-47.2,0-.2,0-.3,0-.5,0,0,0-.2,0-.3,0h0c-1.5,0-2.8,0-3.7.1-.1,0-.3,0-.4,0-.1,0-.3,0-.4,0h0c0,.1,0,.2,0,.4,0,0,0,.1,0,.2,0,1-.1,30.7-.1,32.3s0,31.4.1,32.4c0,0,0,0,0,.1,0,.1,0,.3,0,.4h0c.1,0,.2,0,.4,0,.3,0,.8,0,1.2,0,.9,0,1.9,0,3.1,0s1.8,0,2.6,0c6.3,0,44.2,0,44.9,0,0,0,0,0,.1,0,.1,0,.2,0,.3,0h0c0-.1,0-.2,0-.4,0-.3,0-.8,0-1.2,0-.9,0-2,0-3.1s0-3,0-4c0-.1,0-.2,0-.3,0-.2,0-.3,0-.4,0,0-.2,0-.3,0,0,0,0,0,0,0-.7,0-36-.1-42.7,0,0-6,0-13.5,0-18.4,6.9,0,41.9,0,42.6,0,0,0,0,0,.1,0,.1,0,.2,0,.3,0h0c0-.1,0-.2,0-.4,0-.3,0-.8,0-1.2,0-.9,0-2,0-3.1s0-3,0-4c0-.1,0-.2,0-.3,0-.1,0-.3,0-.4,0,0-.2,0-.3,0,0,0,0,0,0,0-.8,0-35.8-.1-42.7,0,0-5,0-12.8,0-18.7,6.7,0,42.2,0,42.9,0,0,0,0,0,.1,0,.1,0,.2,0,.3,0h0c0-.1,0-.2,0-.4,0-.4,0-.8,0-1.2,0-.9,0-1.9,0-3.1s0-3,0-4c0-.1,0-.2,0-.3h0Z"/>
    <path class="st0" d="M378,44.6c0-.3,0-.5,0-.8h0c-.2-.2-.4-.4-.6-.6,0,0-.1-.1-.2-.2-1.5-1.6-3.8-4-6.4-6.6-2.1-2.2-4.1-4.1-5.7-5.5-.4-.4-.8-.7-1.1-1-.2-.2-.4-.4-.6-.6h0c-.3,0-.5,0-.8,0h-.2c-2.1,0-5.4-.1-8.9-.1s-4.3,0-6.1,0c-1.6-1.7-3.6-3.7-5.8-5.9-2.2-2.2-4.2-4.2-5.9-5.8,0-1.8,0-3.9,0-6.1v-.8c4.8,0,11.1,0,18,0s15.9,0,20.9-.1c.2,0,.5,0,.7,0,.7,0,1.4,0,2,0h0c0-.1.1-.2.2-.4.1-.4.3-.8.4-1.2.2-.9.4-1.9.4-3.1s-.2-3-.6-4c0-.1,0-.2-.1-.3,0-.1-.1-.3-.2-.4-.6,0-1.2,0-2,0-.2,0-.4,0-.6,0-5,0-12.6-.1-21-.1s-13.4,0-18.2.1c-1.2,0-2.4,0-3.4,0-.6,0-1.2,0-1.7,0-1.2,0-2.4,0-3.2.2-.2,0-.5,0-.7.1-.1,0-.3,0-.4,0h0c0,.3,0,.5,0,.8,0,.4,0,.9,0,1.4,0,2.1-.1,4.8-.1,7.8s0,6.2.1,8.3c0,.3,0,.6,0,.8,0,.3,0,.6,0,.8h0s0,0,0,0c0,0,0,0,0,0h0c.2.2.4.5.7.8.1.1.2.3.4.4,1.8,1.9,4.5,4.6,7.5,7.6,3.1,3.1,5.9,5.8,7.8,7.6.1,0,.2.2.3.2.2.2.5.5.7.7h0s0,0,0,0c0,0,0,0,0,0h0c.2,0,.5,0,.8,0,.1,0,.3,0,.4,0,2.1,0,5.3.1,8.8.1s4.3,0,6.1,0c1.3,1.3,2.8,2.9,4.4,4.5,1.6,1.6,3.2,3.2,4.5,4.4,0,1.7,0,3.6,0,5.7s0,2.8,0,4c-4.7,0-10.4,0-16.5,0s-14.2,0-19.3,0c-1.3,0-2.5,0-3.6,0-.8,0-1.5,0-2.1,0h0c0,.1-.1.2-.2.4,0,.2-.2.4-.2.6-.3,1-.5,2.3-.5,3.7s.2,2.9.6,3.9c0,.1.1.3.2.4,0,.1.1.3.2.4h0c.6,0,1.3,0,2.1,0,.3,0,.7,0,1,0h44.2c.2,0,.5,0,.7,0,.8,0,1.5,0,2.1,0h0c0-.1.2-.3.2-.4.2-.3.3-.8.4-1.2.2-.8.3-1.8.3-2.8,0-.1,0-.2,0-.4,0-.7,0-1.5,0-2.5,0-1.8,0-4,0-6.3s0-6.1-.1-8.1c0-.2,0-.5,0-.7h0Z"/>
    <path class="st0" d="M209.1,60.2c-.1-.1-.3-.3-.4-.4-3.4-3.5-8.5-8.7-14.2-14.5-4.3-4.3-8.2-8.2-11.4-11.3,1.5-1.5,3-3,4.6-4.6,8-8,15.1-15.2,19.9-20.1.2-.2.4-.5.7-.7.7-.7,1.3-1.3,1.9-1.9h0c0-.2,0-.3,0-.5-.1-.4-.3-.8-.5-1.3-.4-.8-1.1-1.7-1.9-2.6-1.1-1.1-2.4-1.9-3.4-2.3-.1,0-.2,0-.4-.1-.2,0-.3,0-.5,0-.6.6-1.2,1.2-1.9,1.8-.2.2-.4.4-.6.6-4.9,4.8-12.1,12-20.2,20-5.4,5.4-10.3,10.4-14.4,14.5v-2.9c0-10.8,0-20.5-.1-27.4,0-.8,0-1.6,0-2.3,0-1,0-1.9,0-2.8h0c-.1,0-.3-.2-.4-.2,0,0,0,0-.1,0-1-.6-2.6-.9-4.3-.9s-2.7.2-3.7.7c-.2.1-.5.2-.7.4-.1,0-.3.2-.4.2h0c0,.8,0,1.8,0,2.8,0,1.3,0,2.8,0,4.4,0,6.7-.1,15.6-.1,25.4s0,20.2.1,27.1c0,.9,0,1.8,0,2.7,0,1,0,1.9,0,2.7h0c.1.1.3.2.4.3,0,0,.1,0,.2.1,1,.5,2.5.9,4.2.9s3.2-.4,4.3-.9c0,0,0,0,.1,0,.1,0,.3-.2.4-.3h0c0-.8,0-1.7,0-2.7,0-2.4,0-5.2,0-8.4,0-1.5,0-3,0-4.7.3-.2.5-.5.8-.8.3-.3.7-.7,1-1,2.3-2.2,5.1-5,8.2-8,3.1,3.2,7,7.2,11.3,11.4,5.7,5.7,10.9,10.8,14.4,14.2.2.2.3.3.5.5.5.5.9.9,1.4,1.3h0c.1,0,.3,0,.4-.2.4-.2.7-.3,1.1-.6.8-.5,1.6-1.2,2.5-2,1.1-1.1,2-2.3,2.5-3.3,0-.1.1-.2.1-.3,0-.2.1-.3.1-.4-.4-.4-.8-.9-1.3-1.4h0Z"/>
    <path class="st0" d="M450,60.2c-.1-.1-.3-.3-.4-.4-3.4-3.5-8.5-8.7-14.2-14.5-4.3-4.3-8.2-8.2-11.4-11.3,1.5-1.5,3-3,4.6-4.6,8-8,15.1-15.2,19.9-20.1.2-.2.5-.5.7-.7.7-.7,1.3-1.3,1.9-1.9h0c0-.2,0-.3,0-.5-.1-.4-.3-.8-.5-1.3-.4-.8-1.1-1.7-1.9-2.6-1.1-1.1-2.4-1.9-3.5-2.3-.1,0-.2,0-.4-.1-.2,0-.3,0-.5,0-.6.6-1.2,1.2-1.9,1.8-.2.2-.4.4-.6.6-4.9,4.8-12.1,12-20.2,20-5.4,5.4-10.3,10.4-14.5,14.5v-2.9c0-10.8,0-20.5-.1-27.4,0-.8,0-1.6,0-2.3,0-1,0-1.9,0-2.8h0c-.1,0-.3-.2-.4-.2,0,0,0,0-.1,0-1-.6-2.6-.9-4.3-.9s-2.7.2-3.7.7c-.2.1-.5.2-.7.4-.1,0-.3.2-.4.2h0c0,.8,0,1.8,0,2.8,0,1.3,0,2.8,0,4.4,0,6.7-.1,15.6-.1,25.4s0,20.2.1,27.1c0,.9,0,1.8,0,2.7,0,1,0,1.9,0,2.7h0c.1.1.3.2.4.3,0,0,.1,0,.2.1,1,.5,2.5.9,4.2.9s3.2-.4,4.3-.9c0,0,0,0,.1,0,.1,0,.3-.2.4-.3h0c0-.8,0-1.7,0-2.7,0-2.4,0-5.2,0-8.4,0-1.5,0-3,0-4.7.3-.2.5-.5.8-.8.3-.3.7-.7,1-1,2.3-2.2,5.1-5,8.2-8,3.1,3.2,7,7.2,11.3,11.4,5.7,5.7,10.9,10.8,14.4,14.2.2.2.3.3.5.5.5.5,1,.9,1.4,1.3h0c.1,0,.3,0,.4-.2.4-.2.7-.3,1.1-.6.8-.5,1.6-1.2,2.5-2,1.1-1.1,2-2.3,2.5-3.3,0-.1.1-.2.1-.3,0-.2.1-.3.1-.4-.4-.4-.8-.9-1.3-1.4h0Z"/>
    <path class="st0" d="M158.5,99.3v23.8h-1.6l-12.1-19.3v19.3h-2v-23.8h1.6l12.1,19.3v-19.3h2Z"/>
    <path class="st0" d="M174.9,112v11.1h-1.8v-2.8c-.9,1.8-2.5,3-4.9,3s-5.2-2.1-5.2-5.2,1.4-5.1,5.4-5.1h4.5v-1.1c0-3.1-1.4-4.7-4-4.7s-3.5.8-4.7,2.1l-.9-1.8c1.4-1.5,3.5-2.4,5.8-2.4,3.6,0,5.7,2.3,5.7,6.9ZM173,117.7v-2.9h-4.4c-2.7,0-3.6,1.4-3.6,3.2s1.3,3.4,3.6,3.4,3.7-1.3,4.5-3.6h0Z"/>
    <path class="st0" d="M187.5,122c-.8.8-1.9,1.3-3,1.3-2.7,0-4.1-1.9-4.1-5.2v-10.8h-2.5v-2h2.5v-3.9h1.9v3.9h4.3v2h-4.3v10.7c0,2.1.9,3.3,2.4,3.3s1.6-.3,2.1-.9l.7,1.7h0Z"/>
    <path class="st0" d="M190.5,99.6c0-.9.6-1.7,1.4-1.7s1.4.8,1.4,1.7-.6,1.8-1.4,1.8-1.4-.8-1.4-1.7h0ZM190.9,105.2h1.9v17.9h-1.9v-17.9Z"/>
    <path class="st0" d="M196.8,114.2c0-5.3,3.1-9.1,7.2-9.1s7.2,3.8,7.2,9.1-3,9.1-7.2,9.1-7.2-3.8-7.2-9.1ZM209.2,114.2c0-4.2-2.2-7-5.2-7s-5.3,2.8-5.3,7,2.3,7,5.3,7,5.2-2.8,5.2-7Z"/>
    <path class="st0" d="M228,112.7v10.4h-1.9v-10.1c0-3.8-1.6-5.7-4.2-5.7s-4.9,2.4-4.9,6.5v9.4h-1.9v-17.9h1.8v3.3c1-2.2,2.9-3.4,5.4-3.4s5.8,2.5,5.8,7.7h0Z"/>
    <path class="st0" d="M243.9,112v11.1h-1.8v-2.8c-.9,1.8-2.5,3-4.9,3s-5.2-2.1-5.2-5.2,1.4-5.1,5.4-5.1h4.5v-1.1c0-3.1-1.4-4.7-4-4.7s-3.5.8-4.7,2.1l-.9-1.8c1.4-1.5,3.5-2.4,5.8-2.4,3.6,0,5.7,2.3,5.7,6.9h0ZM242,117.7v-2.9h-4.4c-2.7,0-3.6,1.4-3.6,3.2s1.3,3.4,3.6,3.4,3.7-1.3,4.5-3.6h0Z"/>
    <path class="st0" d="M249.1,97.9h1.9v25.2h-1.9v-25.2Z"/>
    <path class="st0" d="M283.2,99.3v23.8h-1.9v-19l-7.4,16h-.9l-7.4-15.9v18.9h-1.9v-23.8h1.6l8.2,17.6,8.1-17.6h1.7Z"/>
    <path class="st0" d="M301.7,105.2v17.9h-1.8v-3.3c-1,2.2-2.8,3.4-5.1,3.4-3.6,0-6-2.6-6-7.7v-10.4h1.9v10.1c0,3.8,1.6,5.8,4.2,5.8s4.8-2.4,4.8-6.5v-9.4h1.9,0Z"/>
    <path class="st0" d="M305.1,121.1l.9-1.9c1.1,1.1,3,2,5,2s3.8-1.2,3.8-2.9c0-4.7-9.2-1-9.2-8.1s2-5.1,5.6-5.1,3.8.7,5,1.7l-.8,1.9c-1.2-1.1-2.7-1.5-4.2-1.5-2.5,0-3.7,1.3-3.7,3,0,4.8,9.2,1.2,9.2,8.1s-2.1,5.1-5.8,5.1-4.6-.9-5.8-2.2h0Z"/>
    <path class="st0" d="M332.5,114.9h-11.8c.2,3.7,2.5,6.2,5.6,6.2s3.2-.8,4.3-2.3l1.1,1.6c-1.3,1.9-3.2,2.9-5.5,2.9-4.4,0-7.4-3.8-7.4-9.1s2.9-9.1,6.9-9.1,6.9,3.7,6.9,9.1,0,.5,0,.8h0ZM320.7,113.1h10c-.2-3.5-2.3-5.9-5-5.9s-4.8,2.4-5,5.9Z"/>
    <path class="st0" d="M349.1,105.2v17.9h-1.8v-3.3c-1,2.2-2.8,3.4-5.1,3.4-3.6,0-6-2.6-6-7.7v-10.4h1.9v10.1c0,3.8,1.6,5.8,4.2,5.8s4.8-2.4,4.8-6.5v-9.4h1.9,0Z"/>
    <path class="st0" d="M377.8,112.7v10.4h-1.9v-10.1c0-3.8-1.5-5.7-4.1-5.7s-4.7,2.4-4.7,6.5v9.4h-1.9v-10.1c0-3.8-1.5-5.7-4.1-5.7s-4.7,2.4-4.7,6.5v9.4h-1.9v-17.9h1.8v3.3c1-2.1,2.8-3.4,5.2-3.4s4.2,1.3,5,3.8c1-2.3,3-3.8,5.6-3.8s5.7,2.5,5.7,7.7h0Z"/>
    <path class="st0" d="M98.2,165.2l.8-1.9c1.3,1.7,3.7,2.9,6.2,2.9,3.5,0,5.1-1.9,5.1-4.2,0-6.5-11.6-2.5-11.6-11.3s2.2-6.5,6.9-6.5,4.3.8,5.8,2.1l-.7,2c-1.6-1.3-3.5-2-5.2-2-3.4,0-5,1.9-5,4.3,0,6.5,11.6,2.6,11.6,11.2s-2.2,6.5-7,6.5-5.6-1.3-7-3.1Z"/>
    <path class="st0" d="M114.7,159.2c0-5.3,3.1-9.1,7.3-9.1s4.4,1.2,5.5,3.5l-1.4,1.2c-1-1.8-2.5-2.6-4.1-2.6-3.1,0-5.3,2.8-5.3,7s2.3,7,5.3,7,3.1-.8,4.1-2.6l1.4,1.2c-1.1,2.3-3.1,3.5-5.5,3.5-4.2,0-7.3-3.8-7.3-9.1Z"/>
    <path class="st0" d="M130.8,144.6c0-.9.6-1.7,1.4-1.7s1.4.8,1.4,1.7-.6,1.8-1.4,1.8-1.4-.8-1.4-1.7h0ZM131.2,150.2h1.9v17.9h-1.9v-17.9Z"/>
    <path class="st0" d="M150.7,159.9h-11.8c.2,3.7,2.5,6.2,5.6,6.2s3.2-.8,4.3-2.4l1.1,1.6c-1.3,1.9-3.2,2.9-5.4,2.9-4.4,0-7.4-3.8-7.4-9.1s2.9-9.1,6.9-9.1,6.9,3.7,6.9,9.1,0,.5,0,.8h0ZM138.9,158.1h10c-.2-3.5-2.3-5.9-5-5.9s-4.8,2.4-5,5.9h0Z"/>
    <path class="st0" d="M167.7,157.7v10.4h-1.9v-10.1c0-3.8-1.6-5.7-4.2-5.7s-4.9,2.4-4.9,6.5v9.4h-1.9v-17.9h1.8v3.3c1-2.2,2.9-3.4,5.4-3.4s5.8,2.5,5.8,7.6h0Z"/>
    <path class="st0" d="M171.5,159.2c0-5.3,3.1-9.1,7.3-9.1s4.4,1.2,5.5,3.5l-1.4,1.2c-1-1.8-2.5-2.6-4.1-2.6-3.1,0-5.3,2.8-5.3,7s2.3,7,5.3,7,3.1-.8,4.1-2.6l1.4,1.2c-1.1,2.3-3.1,3.5-5.5,3.5-4.2,0-7.3-3.8-7.3-9.1Z"/>
    <path class="st0" d="M200.1,159.9h-11.8c.2,3.7,2.5,6.2,5.6,6.2s3.2-.8,4.3-2.4l1.1,1.6c-1.3,1.9-3.2,2.9-5.4,2.9-4.4,0-7.4-3.8-7.4-9.1s2.9-9.1,6.9-9.1,6.9,3.7,6.9,9.1,0,.5,0,.8h0ZM188.3,158.1h10c-.2-3.5-2.3-5.9-5-5.9s-4.8,2.4-5,5.9Z"/>
    <path class="st0" d="M221.7,157v11.1h-1.8v-2.8c-.9,1.8-2.5,3-4.9,3s-5.2-2.1-5.2-5.2,1.4-5.1,5.4-5.1h4.5v-1.1c0-3.1-1.4-4.7-4-4.7s-3.5.8-4.7,2.1l-.9-1.8c1.4-1.5,3.5-2.4,5.8-2.4,3.6,0,5.7,2.3,5.7,6.9h0ZM219.8,162.7v-2.9h-4.4c-2.7,0-3.6,1.4-3.6,3.2s1.3,3.4,3.6,3.4,3.7-1.3,4.5-3.6h0Z"/>
    <path class="st0" d="M239.9,157.7v10.4h-1.9v-10.1c0-3.8-1.6-5.7-4.2-5.7s-4.9,2.4-4.9,6.5v9.4h-1.9v-17.9h1.8v3.3c1-2.2,2.9-3.4,5.4-3.4s5.8,2.5,5.8,7.6h0Z"/>
    <path class="st0" d="M258,142.9v25.2h-1.8v-3.5c-1.1,2.4-3.1,3.7-5.4,3.7-4,0-7-3.7-7-9.1s3-9.1,7-9.1,4.2,1.2,5.4,3.5v-10.7h1.9,0ZM256.1,159.2c0-4.2-2.3-7-5.2-7s-5.3,2.8-5.3,7,2.3,7,5.3,7,5.2-2.8,5.2-7Z"/>
    <path class="st0" d="M274.4,146.5h-6.6v-2.2h15.2v2.2h-6.6v21.6h-2v-21.6h0Z"/>
    <path class="st0" d="M296.6,159.9h-11.8c.2,3.7,2.5,6.2,5.6,6.2s3.2-.8,4.3-2.4l1.1,1.6c-1.3,1.9-3.2,2.9-5.5,2.9-4.4,0-7.4-3.8-7.4-9.1s2.9-9.1,6.9-9.1,6.9,3.7,6.9,9.1,0,.5,0,.8h0ZM284.8,158.1h10c-.2-3.5-2.3-5.9-5-5.9s-4.8,2.4-5,5.9h0Z"/>
    <path class="st0" d="M299.1,159.2c0-5.3,3.1-9.1,7.3-9.1s4.4,1.2,5.5,3.5l-1.4,1.2c-1-1.8-2.5-2.6-4.1-2.6-3.1,0-5.3,2.8-5.3,7s2.3,7,5.3,7,3.1-.8,4.1-2.6l1.4,1.2c-1.1,2.3-3.1,3.5-5.5,3.5-4.2,0-7.3-3.8-7.3-9.1Z"/>
    <path class="st0" d="M328.4,157.7v10.4h-1.9v-10.1c0-3.8-1.6-5.7-4.2-5.7s-4.9,2.4-4.9,6.5v9.4h-1.9v-25.2h1.9v10.5c1-2.1,2.9-3.3,5.3-3.3,3.4,0,5.8,2.5,5.8,7.6Z"/>
    <path class="st0" d="M346.6,157.7v10.4h-1.9v-10.1c0-3.8-1.6-5.7-4.2-5.7s-4.9,2.4-4.9,6.5v9.4h-1.9v-17.9h1.8v3.3c1-2.2,2.9-3.4,5.4-3.4s5.8,2.5,5.8,7.6h0Z"/>
    <path class="st0" d="M350.4,159.2c0-5.3,3.1-9.1,7.2-9.1s7.2,3.8,7.2,9.1-3,9.1-7.2,9.1-7.2-3.8-7.2-9.1ZM362.9,159.2c0-4.2-2.2-7-5.2-7s-5.3,2.8-5.3,7,2.3,7,5.3,7,5.2-2.8,5.2-7Z"/>
    <path class="st0" d="M368.7,142.9h1.9v25.2h-1.9v-25.2Z"/>
    <path class="st0" d="M374.5,159.2c0-5.3,3.1-9.1,7.2-9.1s7.2,3.8,7.2,9.1-3,9.1-7.2,9.1-7.2-3.8-7.2-9.1ZM386.9,159.2c0-4.2-2.2-7-5.2-7s-5.3,2.8-5.3,7,2.3,7,5.3,7,5.2-2.8,5.2-7Z"/>
    <path class="st0" d="M405.9,150.2v15.7c0,6.1-2.4,8.9-7.1,8.9s-5.1-1-6.6-2.8l1-1.8c1.3,1.5,3.4,2.4,5.6,2.4,3.6,0,5.2-2.1,5.2-6.5v-2.3c-1.2,2.3-3.2,3.5-5.5,3.5-4,0-7.1-3.6-7.1-8.7s3.1-8.6,7.1-8.6,4.4,1.2,5.6,3.6v-3.4h1.8,0ZM404,158.7c0-3.9-2.3-6.5-5.4-6.5s-5.3,2.6-5.3,6.5,2.2,6.6,5.3,6.6,5.4-2.7,5.4-6.6Z"/>
    <path class="st0" d="M423.1,150.2l-7.1,20c-1.2,3.5-2.7,4.6-4.7,4.6s-2.6-.5-3.4-1.6l.9-1.8c.7.9,1.6,1.4,2.6,1.4s2.1-.8,2.9-3l.6-1.7-6.3-17.9h2l5.3,15.2,5.3-15.2h1.9,0Z"/>
  </g>
</svg>