<svg id="Layer_1" data-name="Layer 1" xmlns="http://www.w3.org/2000/svg" viewBox="0 0 1920 605"><path d="M977.66,161.51h-25.9c-5.56,0-12,8.08-15.3,12.06-.94,1.13-8.7,11.49-4.25,11.49h24.45v216.7c0,4.95,10.11-3.68,11-4.47a58.1,58.1,0,0,0,8.12-9.09c1.32-1.88,3.38-4.51,3.38-6.95V163C979.14,162,978.66,161.47,977.66,161.51Z"/><path d="M991.66,113.81h-25.9c-5.56,0-14.92,8.08-18.21,12.05-.94,1.14-8.7,11.5-4.25,11.5,8.63,0,17.26.19,25.89,0C977.55,137.18,999.27,113.61,991.66,113.81Z"/><path d="M921.18,225.55c-.11-.6-.8-4.49-1-5.22-2-11.83-6.15-24.19-14.22-34.51-12.64-16.18-30.27-20.1-45.76-21.85-8.11-.92-30.83-1.12-39-1.13-5.56,0-14.93,7.71-18.21,11.5-.94,1.08-8.71,10.95-4.26,10.95,12.93,0,40.46,0,53.69.66,11.81.6,38.21,0,53.41,30.9.53,1.07,1.13,2.32,1.75,3.75A31.15,31.15,0,0,1,910.07,231a125.58,125.58,0,0,1-11.72,60.9C878,335.1,832.58,366,766.62,381.77c.28-20.54,1-75.45,1-99.42-.05-22.08-.39-44.8-5.79-66.33-4.09-16.33-15.42-32.18-29.95-41.64-14.22-9.25-30.64-11-47.19-11H662.37c-20.54-.16,2.89-.88-25.46,0-.63,0-1.27,0-1.9,0-5.57,0-14.92,7.71-18.21,11.5-.94,1.08-8.71,11-4.26,11H656.4c13.79.15,37.37,1.16,49.88,7.6,35,18,35.39,65.92,35.86,99.86.39,28.46-.66,82.38-.93,95.61,0,7.89-.54,9.68,4.88,8.95,1.12-.14,3.4-.52,4.57-.74,70-13.17,119.65-40.6,147.49-81.5a138.18,138.18,0,0,0,12.53-22.74c.22-.49.43-1,.64-1.48.28-.68.57-1.35.84-2a131.9,131.9,0,0,0,7.5-25c.17-.85.72-3.81,1.21-8.22C923.43,236.63,921.38,226.58,921.18,225.55Z"/><path d="M686.44,330.07c-21.52-32.74-43.64-65.16-67.35-96.42-10.94-14.43-22.22-28.68-34.47-42.08-8.21-9-17.08-18.66-27.83-24.82-6.14-3.52-11.59-3.47-18.41-3.47H492.73c-31.49,0-40.85-1-72.33,0-.64,0-1.28,0-1.91,0-5.57,0-14.92,7.53-18.21,11.23-.94,1.07-8.7,10.71-4.26,10.71H524.36c.79,0,1.6,0,2.39,0,.54,0,1.08.06,1.62.13a5.48,5.48,0,0,1,1.71.38c10.07,3.52,18.47,12.33,25.69,19.66,2.65,2.69,5.24,5.45,7.79,8.24-26.83,18.59-75.76,54.52-121.25,98.6-17.8-26.66-36.13-53-55.52-78.58-10.94-14.43-22.21-28.68-34.46-42.08-8.22-9-17.08-18.66-27.84-24.82-6.14-3.52-11.58-3.47-18.4-3.47H260.44c-31.5,0-60.26-1-91.75,0-.63,0-1.27,0-1.9,0-5.57,0-14.93,7.53-18.21,11.23-1,1.07-8.71,10.71-4.26,10.71H292.07c.79,0,1.59,0,2.38,0,.55,0,1.08.06,1.62.13a5.6,5.6,0,0,1,1.72.38c10.06,3.52,18.47,12.33,25.68,19.66,2.65,2.69,5.23,5.43,7.77,8.22C282,248.17,235.68,286.75,194.07,330.26c-34.68,37.2-67.78,78.79-83.3,128-5,16.43-7.64,33.8-6.26,51.07a2.19,2.19,0,0,0,4.37-.31c-1-16.63,1.79-33.32,6.93-49.18,12.89-38.11,39-75.72,71.2-110.76H430.85q10,15.17,19.79,30.44,4.16,6.53,8.28,13.06c1.4,2.22,1.88,2.91,2.06,3.19,1.87,3,34.76.47,32.45-3.27-6.93-11.21-17.59-28.42-27.07-43.42H663.15q10,15.17,19.78,30.44,4.17,6.53,8.29,13.06c1.4,2.22,1.88,2.91,2.06,3.19,1.87,3,34.76.47,32.45-3.27C715.49,376,697.13,346.35,686.44,330.07ZM195.2,340.39c43.94-45.89,97.41-86.93,143.58-118.25,6.15,7.16,12.07,14.52,17.86,21.94,24.3,31,46.69,63.54,68.47,96.31Zm265.61,0c-2.42-3.79-4.68-7.29-6.67-10.32q-2.62-4-5.27-8c46-44.87,96-81.39,122.45-99.67,6.06,7.07,11.9,14.34,17.62,21.66,24.29,31,46.69,63.54,68.46,96.31Z"/><path d="M1560.12,179.9V332.49a155.11,155.11,0,0,1-32,32.24A80.81,80.81,0,0,1,1511.3,372c-20.06,5.49-42.89,6.17-62.27-2.31a77.72,77.72,0,0,1-42-44.15c-8.85-24.16-5.61-52.64,5.33-75.44a120.11,120.11,0,0,1,10.73-18c1.14-1.62,2.31-3.21,3.5-4.8l.62-.82c.37-.44,1.74-2.17,1.7-2.12q3.72-4.6,7.63-9l2.46-2.69c1.48-1.6,3-3.18,4.48-4.75s3.08-3.19,4.64-4.77c.79-.8,1.58-1.6,2.38-2.39l1.67-1.67c2.06-2,6.14-5.93,9-8.68q5.6-5.27,11.28-10.46a48.69,48.69,0,0,0,9.89-11.85c.57-1,3.23-5.72.16-5.72H1258.27v-55c0-5-25.36,13.79-25.36,18.48v36.53h-159c-19.13,0-33,20.35-33,20.35s-27.6,32.95-18.83,52c7.25,15.74,25.61,25.17,40.35,32.44,20.58,10.15,42.23,17.95,63.47,26.57,17.87,7.26,37.35,14.62,52.25,27.24a40.78,40.78,0,0,1,8,8.67,17.24,17.24,0,0,1,3.31,8.65,24.4,24.4,0,0,1-.15,4.83,9.94,9.94,0,0,1-.22,1.19,9.78,9.78,0,0,1-1.24,2.79l-3.61,4.48-.42.42c-1.56,1.54-3.13,3.06-4.7,4.6l-.26.23c-1,.91-2.06,1.8-3.09,2.7l-.43.38-.3.22c-1,.79-2.08,1.57-3.13,2.34l-.65.49-.42.25c-1.49.92-3,1.85-4.5,2.72a87.35,87.35,0,0,1-16,6.58,106.5,106.5,0,0,1-22.9,3.94c-32.25,2.36-63.43-9.9-84.33-34.94-9.88-11.84-16.86-26.25-17-41.88-.06-4.82-10.3,3.55-11.19,4.34a58.33,58.33,0,0,0-8.28,8.85c-1.34,1.82-3.48,4.4-3.45,6.77.37,31.58,25.6,58.31,52.88,70.92,30.65,14.17,68.1,11.72,97.54-4.41,13.46-7.37,25-17.8,35.77-28.54.68-.68,2.25-2.2,3.89-4,12-12.3,25.58-30.3,13.51-46.76-10.26-14-29.13-21.66-44.47-28.36-21.09-9.21-42.82-16.9-63.91-26.13-17.15-7.5-36.5-16-49-30.44-5.4-6.24-8.49-12.69-7.77-20.81.08-.89.24-1.77.37-2.65a10.27,10.27,0,0,1,.48-1.91c.38-1.1.76-2.19,1.23-3.27a10.91,10.91,0,0,1,.65-1.42c.24-.4,0,0,0,0s1.28-2.24,1.66-2.73.92-1.28,1.24-1.67a15.17,15.17,0,0,1,1.2-1.17,1.54,1.54,0,0,1,.42-.26l72.81,0a1.63,1.63,0,0,0,.34,0h110.9V327.15c0,18.11,2.47,37.76,14.29,51.91,10.22,12.22,25.72,16.91,40.62,19.39,12.65,2.11,26.92-2.93,40.79-11.11,16-6.22,36.06-18.32,55.71-41.78a78.09,78.09,0,0,0,36.59,43.88c20.61,11.22,43.9,12,66.36,7.18,14.37-3.09,27.11-10.67,39-20a152.24,152.24,0,0,0,33.89-30.11v55.07c0,4.95,10.1-3.68,11-4.47,3-2.76,9.65-5.74,12-9.09,1.32-1.89,3.38-4.51,3.38-7V161.42C1586.45,156.46,1560.12,175.2,1560.12,179.9Zm-179,153.3c.11.65.27,1.29.4,1.94a170.35,170.35,0,0,1-11.74,13.56c-17.71,15.49-42.26,31.69-65.06,28.46-14.65-2.07-27.48-8.18-37-20.58-10.53-13.75-9.46-33.44-9.46-50.48V185.92h195.82C1413.73,224.3,1370.41,273.78,1381.11,333.2Z"/><path d="M1811.16,306.74c-10.25-14-29.13-21.66-44.46-28.36-21.1-9.21-42.82-16.9-63.92-26.13-17.14-7.5-36.5-16-49-30.44-5.39-6.24-8.48-12.69-7.77-20.81.08-.89.24-1.77.37-2.65a10.27,10.27,0,0,1,.48-1.91c.39-1.1.77-2.19,1.23-3.27a12.42,12.42,0,0,1,.65-1.42c.25-.4,0,0,0,0s1.29-2.24,1.67-2.73.91-1.28,1.24-1.67a12.35,12.35,0,0,1,1.2-1.17,1.36,1.36,0,0,1,.41-.26c21.62,0,121.08-.07,121.72-.08,5.63-.13,14.92-7.54,18.21-11.24.94-1.06,8.7-12.22,4.26-12.22H1678.31c-19.13,0-33,20.35-33,20.35s-27.59,32.95-18.83,52c7.25,15.74,25.61,25.17,40.35,32.44,20.58,10.15,42.24,17.95,63.48,26.57,17.86,7.26,37.35,14.62,52.25,27.24a40.78,40.78,0,0,1,8,8.67,17.32,17.32,0,0,1,3.3,8.65,23.66,23.66,0,0,1-.14,4.83c0,.38-.14.81-.22,1.19a9.94,9.94,0,0,1-1.25,2.79l-3.6,4.48c-.2.19-.35.34-.42.42-1.56,1.54-3.14,3.06-4.71,4.6l-.26.23c-1,.91-2,1.8-3.09,2.7l-.43.38-.29.22c-1,.79-2.08,1.57-3.13,2.34l-.66.49-.42.25c-1.49.92-3,1.85-4.49,2.72a87.46,87.46,0,0,1-16,6.58,106.39,106.39,0,0,1-22.9,3.94c-32.24,2.36-63.43-9.9-84.32-34.94-9.89-11.84-16.87-26.25-17-41.88-.06-4.82-10.29,3.55-11.18,4.34a57.89,57.89,0,0,0-8.29,8.85c-1.34,1.82-3.47,4.4-3.44,6.77.36,31.58,25.59,58.31,52.88,70.92,30.64,14.17,68.1,11.72,97.53-4.41,13.46-7.37,25-17.8,35.77-28.54.68-.68,2.26-2.2,3.89-4C1809.61,341.2,1823.23,323.2,1811.16,306.74Z"/><path d="M904.57,210.87c4.91,11.56,5.5,16.52,5.6,29.76l5.55-16.28Z"/></svg>