<?xml version="1.0" encoding="UTF-8"?><svg id="b" xmlns="http://www.w3.org/2000/svg" viewBox="0 0 520.02 174.87"><defs><style>.d{fill:#fff;}</style></defs><g id="c"><path class="d" d="M307.14,1.73c-.01-.14-.02-.27-.04-.39h0c-.12-.01-.25-.03-.4-.04-.19-.02-.4-.03-.64-.05-.97-.06-2.27-.1-3.68-.1-1.54,0-2.93.04-3.93.11-.13.01-.26.02-.39.03-.14.01-.27.03-.39.04h0c-.02.12-.03.25-.04.39,0,.07-.01.13-.02.2-.08.99-.13,30.66-.13,32.26s.05,31.41.13,32.4c0,.04,0,.09.01.14.01.14.03.27.04.39h0c.12.02.25.03.39.04.35.03.76.06,1.22.08.88.04,1.95.07,3.1.07,1.57,0,2.98-.04,3.98-.12.12-.01.23-.02.34-.03.15-.01.28-.02.4-.04.01-.12.03-.24.04-.39,0-.04,0-.08.01-.12.08-.99.14-30.77.14-32.41,0-1.37-.03-30.85-.1-31.8-.02-.24-.03-.46-.05-.66Z"/><path class="d" d="M279.7,1.73c-.01-.14-.02-.27-.04-.39h0c-.12-.01-.25-.03-.4-.04-.19-.02-.41-.03-.64-.05-.98-.06-2.28-.1-3.7-.1h-43.22c-1.55,0-2.95.04-3.96.11-.14.01-.26.02-.39.03-.14.01-.28.03-.39.04h0c-.02.12-.03.25-.04.39,0,.07-.01.13-.02.2-.08.99-.08,63.67,0,64.66,0,.04,0,.09.01.14.01.14.03.27.04.39h0c.12.02.25.03.39.04.35.03.76.06,1.23.08.89.04,1.96.07,3.12.07,1.58,0,3-.04,4.01-.12.12-.01.23-.02.34-.03.15-.01.28-.02.4-.04.01-.12.03-.24.04-.39,0-.04,0-.08.01-.12.08-.99.12-46.58.1-55.69,7.02.03,26.46.03,33.45,0-.04,9.18,0,54.68.08,55.67,0,.04,0,.09.01.14.01.14.03.27.04.39h0c.12.02.25.03.39.04.35.03.76.06,1.23.08.89.04,1.96.07,3.12.07,1.58,0,3-.04,4.01-.12.12-.01.23-.02.34-.03.15-.01.28-.02.4-.04.01-.12.03-.24.04-.39,0-.04,0-.08.01-.12.08-.99.11-63.26.04-64.22-.02-.24-.03-.46-.05-.66Z"/><path class="d" d="M519.98,2.4c-.02-.24-.03-.46-.05-.66-.01-.14-.02-.27-.04-.39h0c-.12-.01-.25-.03-.4-.04-.19-.02-.41-.03-.64-.05-.98-.06-2.28-.1-3.7-.1h-43.16c-1.55,0-2.95.04-3.95.11-.14.01-.26.02-.39.03-.14.01-.28.03-.39.04h0c-.02.12-.03.25-.04.39,0,.07-.01.13-.02.2-.08.99-.08,63.67,0,64.66,0,.04,0,.09.01.14.01.14.03.27.04.39h0c.12.02.25.03.39.04.35.03.76.06,1.23.08.89.04,1.96.07,3.12.07,1.57,0,2.99-.04,4-.12.12-.01.23-.02.34-.03.15-.01.28-.02.4-.04.01-.12.03-.24.04-.39,0-.04,0-.08.01-.12.06-.77.11-19.03.13-27.82,6.45.04,26.82.03,33.32,0,.02,8.79.06,27.04.13,27.81,0,.04,0,.09.01.14.01.14.03.27.04.39h0c.12.02.25.03.39.04.35.03.76.06,1.23.08.89.04,1.96.07,3.12.07,1.57,0,2.99-.04,4-.12.12-.01.23-.02.34-.03.15-.01.28-.02.4-.04.01-.12.03-.24.04-.39,0-.04,0-.08.01-.12.08-.99.1-63.26.04-64.22ZM476.91,29.08c0-4.91-.02-12.37-.04-18.17,6.41.04,26.97.03,33.41,0-.02,5.87-.04,13.31-.05,18.2-6.5-.04-26.91-.05-33.32-.02Z"/><path class="d" d="M67.05,1.75c-.01-.15-.02-.28-.04-.4-.12-.01-.25-.03-.39-.04-.04,0-.08,0-.12-.01-1.01-.08-64.28-.1-65.25-.04-.24.02-.47.03-.67.05-.14.01-.27.02-.39.04H.19c-.02.12-.03.25-.04.4-.02.19-.03.4-.05.64-.06.97-.1,2.27-.1,3.68,0,1.54.04,2.93.11,3.93.01.13.02.26.03.39.01.14.03.27.04.39H.19c.12.02.25.03.39.04.07,0,.13.01.21.02.78.06,19.02.1,27.97.12-.04,9.05,0,54.67.07,55.64,0,.04,0,.09.01.13.01.14.03.26.04.38h0c.12.02.25.03.39.04.35.03.76.06,1.22.08.88.04,6.08.02,7.08-.05.12-.01.23-.02.34-.03.15-.01.28-.02.4-.04.01-.12.03-.24.04-.38,0-.04,0-.08.01-.12.08-.97.12-46.7.09-55.66,9.02-.02,27.25-.06,28.02-.13.05,0,.09,0,.14-.01.14-.01.27-.03.39-.04h0c.02-.12.03-.25.04-.39.03-.35.06-.76.08-1.22.04-.88.07-1.95.07-3.1,0-1.57-.05-2.98-.12-3.98-.01-.12-.02-.23-.03-.34Z"/><path class="d" d="M138.17,1.53c0-.15-.02-.28-.03-.4-.09-.01-.18-.03-.28-.04-.03,0-.06,0-.09-.01-.73-.08-46.49-.1-47.2-.04-.18.02-.34.03-.49.05-.1.01-.2.02-.28.04h0c-1.46,0-2.77.05-3.73.11-.13.01-.26.02-.39.03-.14.01-.27.03-.39.04h0c-.02.12-.03.25-.04.39,0,.07-.01.13-.02.2-.08.99-.13,30.66-.13,32.26s.05,31.41.13,32.4c0,.04,0,.09.01.14.01.14.03.27.04.39h0c.12.02.25.03.39.04.35.03.76.06,1.22.08.88.04,1.95.07,3.1.07.96,0,1.85-.02,2.63-.05,6.3.05,44.18.03,44.92-.05.03,0,.07,0,.1-.01.1-.01.2-.03.29-.04h0c.01-.12.02-.25.03-.39.02-.35.04-.76.06-1.22.03-.88.05-1.95.05-3.1,0-1.57-.03-2.98-.09-3.98,0-.12-.01-.23-.02-.34,0-.15-.02-.28-.03-.4-.09-.01-.18-.03-.29-.04-.03,0-.06,0-.09-.01-.74-.08-36-.12-42.73-.09.03-5.96.04-13.52.05-18.42,6.95.04,41.9,0,42.65-.07.03,0,.07,0,.1-.01.11-.01.2-.03.29-.04h0c.01-.12.02-.25.03-.39.02-.35.04-.76.06-1.22.03-.88.05-1.95.05-3.1,0-1.57-.03-2.98-.09-3.98,0-.12-.01-.23-.02-.34,0-.15-.02-.28-.03-.4-.09-.01-.18-.03-.29-.04-.03,0-.06,0-.09-.01-.75-.08-35.78-.12-42.66-.09,0-4.95-.02-12.77-.04-18.74,6.67.04,42.16.02,42.89-.07.03,0,.07,0,.1-.01.1-.01.2-.03.28-.04h0c.01-.12.02-.25.03-.39.02-.35.04-.76.06-1.22.03-.88.05-1.95.05-3.1,0-1.57-.03-2.98-.09-3.98,0-.12-.01-.23-.02-.34Z"/><path class="d" d="M378.02,44.58c-.01-.28-.03-.55-.04-.8,0,0-.01,0-.01,0,0,0,0,0,0-.01-.17-.19-.37-.41-.58-.64-.06-.06-.12-.12-.18-.19-1.5-1.61-3.79-3.98-6.39-6.58-2.15-2.15-4.14-4.09-5.68-5.54-.39-.37-.76-.71-1.09-1.02-.23-.21-.44-.4-.64-.58h0s0,0,0,0c0,0-.01,0-.02,0,0,0,0,0,0,0-.26-.02-.53-.03-.84-.04-.08,0-.17,0-.25,0-2.15-.08-5.36-.14-8.94-.14-2.22,0-4.3.02-6.08.06-1.62-1.68-3.61-3.71-5.79-5.89-2.19-2.19-4.22-4.18-5.91-5.8.04-1.78.06-3.86.06-6.11,0-.28,0-.56,0-.84,4.83.06,11.11.09,18.01.09,8.36,0,15.85-.05,20.91-.14.23,0,.46,0,.67-.01.73-.01,1.38-.03,1.98-.04h0c.08-.12.15-.25.21-.39.15-.35.28-.76.39-1.22.22-.88.35-1.95.35-3.11,0-1.57-.24-2.98-.61-3.99-.03-.12-.09-.23-.13-.34-.05-.15-.13-.28-.21-.4-.6-.01-1.25-.03-1.98-.04-.18,0-.4,0-.59-.01-5.05-.08-12.58-.14-21-.14-6.98,0-13.36.03-18.19.1-1.24.02-2.38.03-3.41.05-.61,0-1.18.02-1.72.03-1.23.01-2.36.08-3.24.2-.25.03-.48.06-.69.11-.14.02-.27.05-.39.08h0c-.01.26-.03.54-.04.85-.02.41-.03.86-.05,1.36-.06,2.07-.1,4.8-.1,7.8,0,3.26.05,6.22.12,8.34,0,.29.02.56.03.83.01.3.03.58.04.83h0s.03,0,.04.01c0,.01-.02.03-.02.04h0s0,0,0,0c.21.23.44.48.69.75.13.13.24.26.37.39,1.8,1.91,4.46,4.65,7.46,7.65,3.07,3.07,5.87,5.79,7.78,7.59.1.08.18.17.27.25.25.23.48.45.7.65,0,0,0,.02,0,.03h0s.02,0,.03,0c0,0,.01.01.02.02h0s.02-.01.02-.01c.24.01.49.02.78.04.14,0,.29.01.44.02,2.14.08,5.27.13,8.75.13,2.23,0,4.32-.02,6.1-.06,1.27,1.33,2.79,2.87,4.43,4.51,1.64,1.64,3.18,3.15,4.51,4.42-.04,1.66-.06,3.59-.06,5.66,0,1.41.01,2.76.03,4.01-4.69-.04-10.35-.06-16.45-.06-7.4,0-14.2.03-19.34.1-1.33.01-2.55.03-3.64.05-.75.01-1.46.03-2.09.04h-.01c-.07.12-.14.25-.21.4-.09.19-.17.41-.25.64-.32.98-.53,2.27-.53,3.68,0,1.54.25,2.94.62,3.94.05.14.1.27.16.39.07.14.14.27.21.39h.01c.64.02,1.34.03,2.09.04.33,0,.66.01,1.01.02h43.72c.16,0,.37,0,.53,0,.25,0,.5,0,.74-.01.76-.01,1.46-.02,2.08-.04h0c.09-.12.17-.26.22-.4.18-.35.31-.76.44-1.22.2-.8.32-1.76.34-2.79,0-.13.01-.24.02-.38.03-.7.06-1.53.08-2.48.04-1.79.07-3.97.07-6.3,0-3.19-.05-6.06-.12-8.1,0-.24-.02-.47-.03-.7Z"/><path class="d" d="M209.14,60.25c-.13-.13-.26-.27-.4-.42-3.39-3.5-8.5-8.7-14.25-14.45-4.27-4.27-8.22-8.18-11.41-11.3,1.5-1.49,3.03-3.02,4.6-4.59,8-8,15.14-15.22,19.91-20.1.22-.24.45-.46.67-.69.66-.69,1.29-1.33,1.85-1.91h0c0-.17-.06-.31-.09-.49-.11-.38-.28-.82-.49-1.26-.43-.84-1.08-1.73-1.91-2.56-1.13-1.13-2.38-1.92-3.45-2.29-.13-.04-.25-.08-.37-.12-.18-.03-.31-.08-.48-.09-.58.56-1.23,1.19-1.91,1.85-.19.19-.38.37-.58.57-4.89,4.77-12.14,11.95-20.21,20.01-5.36,5.36-10.32,10.35-14.45,14.54,0-.95,0-1.91,0-2.87,0-10.79-.05-20.52-.12-27.43,0-.81-.02-1.59-.03-2.32-.01-1-.03-1.93-.04-2.76h0c-.12-.09-.26-.18-.4-.25-.04-.03-.08-.06-.12-.07-1.03-.57-2.57-.94-4.29-.94-1.43,0-2.72.22-3.72.66-.25.1-.48.21-.69.36-.15.07-.28.16-.4.25v.03c-.02.82-.03,1.72-.04,2.73-.02,1.33-.03,2.79-.05,4.41-.07,6.71-.1,15.62-.1,25.35,0,10.61.04,20.22.12,27.12,0,.93.02,1.81.03,2.68.01.99.03,1.89.04,2.7h0c.12.12.26.22.4.3.07.03.14.07.21.12,1.03.54,2.53.88,4.2.88s3.24-.36,4.27-.93c.05-.01.09-.04.14-.07.15-.07.28-.18.41-.28h0c.01-.82.03-1.72.04-2.71.03-2.4.06-5.23.08-8.42.01-1.48.02-3.03.03-4.65.26-.25.51-.5.79-.76.33-.33.66-.65,1.01-.99,2.29-2.24,5.08-4.98,8.18-8.05,3.13,3.2,7.04,7.16,11.32,11.44,5.71,5.71,10.88,10.79,14.38,14.18.17.16.33.32.49.47.49.47.95.92,1.37,1.31h0c.15-.03.27-.09.43-.15.35-.15.74-.35,1.15-.6.78-.49,1.64-1.17,2.46-2,1.13-1.13,1.99-2.31,2.46-3.29.05-.11.1-.23.15-.33.05-.16.12-.28.14-.43-.4-.42-.84-.88-1.31-1.37Z"/><path class="d" d="M450.04,60.25c-.13-.13-.26-.27-.4-.42-3.39-3.5-8.5-8.7-14.25-14.45-4.27-4.27-8.22-8.18-11.41-11.3,1.5-1.49,3.03-3.02,4.6-4.59,8-8,15.14-15.22,19.91-20.1.22-.24.45-.46.67-.69.66-.69,1.29-1.33,1.85-1.91h0c0-.17-.06-.31-.09-.49-.11-.38-.28-.82-.49-1.26-.43-.84-1.08-1.73-1.91-2.56-1.13-1.13-2.38-1.92-3.45-2.29-.13-.04-.25-.08-.37-.12-.18-.03-.31-.08-.48-.09-.58.56-1.23,1.19-1.91,1.85-.19.19-.38.37-.58.57-4.89,4.77-12.14,11.95-20.21,20.01-5.36,5.36-10.32,10.35-14.45,14.54,0-.95,0-1.91,0-2.87,0-10.79-.05-20.52-.12-27.43,0-.81-.02-1.59-.03-2.32-.01-1-.03-1.93-.04-2.76h0c-.12-.09-.26-.18-.4-.25-.04-.03-.08-.06-.12-.07-1.03-.57-2.57-.94-4.29-.94-1.43,0-2.72.22-3.72.66-.25.1-.48.21-.69.36-.15.07-.28.16-.4.25v.03c-.02.82-.03,1.72-.04,2.73-.02,1.33-.03,2.79-.05,4.41-.07,6.71-.1,15.62-.1,25.35,0,10.61.04,20.22.12,27.12,0,.93.02,1.81.03,2.68.01.99.03,1.89.04,2.7h0c.12.12.26.22.4.3.07.03.14.07.21.12,1.03.54,2.53.88,4.2.88s3.24-.36,4.27-.93c.05-.01.09-.04.14-.07.15-.07.28-.18.41-.28h0c.01-.82.03-1.72.04-2.71.03-2.4.06-5.23.08-8.42.01-1.48.02-3.03.03-4.65.26-.25.51-.5.79-.76.33-.33.66-.65,1.01-.99,2.29-2.24,5.08-4.98,8.18-8.05,3.13,3.2,7.04,7.16,11.32,11.44,5.71,5.71,10.88,10.79,14.38,14.18.17.16.33.32.49.47.49.47.95.92,1.37,1.31h0c.15-.03.27-.09.43-.15.35-.15.74-.35,1.15-.6.78-.49,1.64-1.17,2.46-2,1.13-1.13,1.99-2.31,2.46-3.29.05-.11.1-.23.15-.33.05-.16.12-.28.14-.43-.4-.42-.84-.88-1.31-1.37Z"/><path class="d" d="M158.48,99.31v23.8h-1.64l-12.08-19.31v19.31h-1.99v-23.8h1.64l12.11,19.31v-19.31h1.96Z"/><path class="d" d="M174.86,112.02v11.08h-1.83v-2.79c-.86,1.84-2.52,2.96-4.86,2.96-3.2,0-5.16-2.11-5.16-5.2,0-2.75,1.4-5.07,5.45-5.07h4.49v-1.09c0-3.06-1.37-4.73-4-4.73-1.83,0-3.54.82-4.7,2.11l-.86-1.8c1.42-1.53,3.52-2.41,5.75-2.41,3.65,0,5.72,2.31,5.72,6.94ZM172.96,117.73v-2.92h-4.43c-2.74,0-3.62,1.36-3.62,3.2,0,2.07,1.32,3.37,3.57,3.37s3.73-1.29,4.49-3.64Z"/><path class="d" d="M187.49,122.02c-.75.85-1.88,1.26-2.98,1.26-2.66,0-4.14-1.9-4.14-5.2v-10.81h-2.52v-2.04h2.52v-3.91h1.91v3.91h4.3v2.04h-4.3v10.67c0,2.11.86,3.26,2.44,3.26.78,0,1.56-.31,2.09-.92l.67,1.73Z"/><path class="d" d="M190.52,99.58c0-.92.62-1.7,1.4-1.7s1.4.75,1.4,1.67c0,.99-.59,1.77-1.4,1.77s-1.4-.78-1.4-1.73ZM190.95,105.22h1.91v17.88h-1.91v-17.88Z"/><path class="d" d="M196.76,114.16c0-5.3,3.06-9.08,7.2-9.08s7.17,3.77,7.17,9.08-3.04,9.11-7.17,9.11-7.2-3.81-7.2-9.11ZM209.19,114.16c0-4.18-2.23-6.97-5.24-6.97s-5.26,2.79-5.26,6.97,2.26,6.97,5.26,6.97,5.24-2.79,5.24-6.97Z"/><path class="d" d="M228.02,112.73v10.37h-1.91v-10.13c0-3.77-1.56-5.71-4.24-5.71-3.04,0-4.94,2.38-4.94,6.46v9.38h-1.91v-17.88h1.83v3.3c1.02-2.18,2.93-3.43,5.37-3.43,3.44,0,5.8,2.52,5.8,7.65Z"/><path class="d" d="M243.86,112.02v11.08h-1.83v-2.79c-.86,1.84-2.52,2.96-4.86,2.96-3.2,0-5.16-2.11-5.16-5.2,0-2.75,1.4-5.07,5.45-5.07h4.48v-1.09c0-3.06-1.37-4.73-4-4.73-1.83,0-3.54.82-4.7,2.11l-.86-1.8c1.42-1.53,3.52-2.41,5.75-2.41,3.65,0,5.72,2.31,5.72,6.94ZM241.96,117.73v-2.92h-4.43c-2.74,0-3.63,1.36-3.63,3.2,0,2.07,1.32,3.37,3.57,3.37s3.73-1.29,4.48-3.64Z"/><path class="d" d="M249.05,97.88h1.91v25.23h-1.91v-25.23Z"/><path class="d" d="M283.24,99.31v23.8h-1.91v-19.04l-7.39,16.01h-.94l-7.38-15.91v18.94h-1.91v-23.8h1.64l8.16,17.64,8.08-17.64h1.64Z"/><path class="d" d="M301.69,105.22v17.88h-1.83v-3.26c-.99,2.18-2.82,3.43-5.08,3.43-3.6,0-5.96-2.55-5.96-7.68v-10.37h1.91v10.13c0,3.81,1.56,5.75,4.24,5.75,2.95,0,4.81-2.41,4.81-6.49v-9.38h1.91Z"/><path class="d" d="M305.08,121.06l.86-1.9c1.13,1.12,3.04,2.01,5.02,2.01,2.69,0,3.79-1.16,3.79-2.92,0-4.66-9.16-.99-9.16-8.06,0-2.92,1.99-5.1,5.59-5.1,1.83,0,3.81.65,5,1.67l-.83,1.94c-1.24-1.09-2.71-1.53-4.16-1.53-2.55,0-3.68,1.26-3.68,2.96,0,4.83,9.16,1.19,9.16,8.06,0,3.09-2.15,5.1-5.83,5.1-2.34,0-4.59-.95-5.75-2.21Z"/><path class="d" d="M332.48,114.91h-11.82c.21,3.74,2.47,6.22,5.56,6.22,1.72,0,3.25-.78,4.32-2.35l1.07,1.56c-1.26,1.9-3.22,2.92-5.45,2.92-4.4,0-7.41-3.81-7.41-9.11s2.93-9.08,6.9-9.08,6.85,3.71,6.85,9.08c0,.2-.03.48-.03.75ZM320.66,113.11h10.02c-.24-3.5-2.26-5.95-5.02-5.95s-4.75,2.45-5,5.95Z"/><path class="d" d="M349.13,105.22v17.88h-1.83v-3.26c-.99,2.18-2.82,3.43-5.08,3.43-3.6,0-5.96-2.55-5.96-7.68v-10.37h1.91v10.13c0,3.81,1.56,5.75,4.24,5.75,2.95,0,4.81-2.41,4.81-6.49v-9.38h1.91Z"/><path class="d" d="M377.79,112.73v10.37h-1.91v-10.13c0-3.77-1.5-5.71-4.06-5.71-2.9,0-4.73,2.38-4.73,6.46v9.38h-1.91v-10.13c0-3.77-1.5-5.71-4.08-5.71-2.87,0-4.73,2.38-4.73,6.46v9.38h-1.91v-17.88h1.83v3.26c.99-2.14,2.82-3.4,5.18-3.4s4.16,1.26,5.02,3.77c1.02-2.31,3.03-3.77,5.59-3.77,3.44,0,5.69,2.52,5.69,7.65Z"/><path class="d" d="M98.18,165.21l.78-1.94c1.34,1.67,3.73,2.89,6.2,2.89,3.52,0,5.05-1.87,5.05-4.22,0-6.53-11.58-2.52-11.58-11.32,0-3.5,2.15-6.53,6.93-6.53,2.12,0,4.32.78,5.83,2.11l-.67,2.01c-1.61-1.33-3.49-1.97-5.16-1.97-3.44,0-4.97,1.94-4.97,4.32,0,6.53,11.58,2.58,11.58,11.25,0,3.5-2.2,6.49-7.01,6.49-2.82,0-5.59-1.26-6.98-3.09Z"/><path class="d" d="M114.67,159.16c0-5.34,3.06-9.08,7.28-9.08,2.39,0,4.4,1.19,5.53,3.54l-1.42,1.22c-.97-1.8-2.47-2.65-4.11-2.65-3.09,0-5.34,2.79-5.34,6.97s2.26,6.97,5.34,6.97c1.64,0,3.14-.82,4.11-2.62l1.42,1.22c-1.13,2.31-3.14,3.54-5.53,3.54-4.22,0-7.28-3.77-7.28-9.11Z"/><path class="d" d="M130.79,144.58c0-.92.62-1.7,1.4-1.7s1.4.75,1.4,1.67c0,.99-.59,1.77-1.4,1.77s-1.4-.78-1.4-1.73ZM131.22,150.22h1.91v17.88h-1.91v-17.88Z"/><path class="d" d="M150.74,159.91h-11.82c.21,3.74,2.47,6.22,5.56,6.22,1.72,0,3.25-.78,4.32-2.35l1.07,1.56c-1.26,1.9-3.22,2.92-5.45,2.92-4.4,0-7.41-3.81-7.41-9.11s2.93-9.08,6.9-9.08,6.85,3.71,6.85,9.08c0,.2-.03.48-.03.75ZM138.93,158.11h10.02c-.24-3.5-2.26-5.95-5.02-5.95s-4.75,2.45-4.99,5.95Z"/><path class="d" d="M167.66,157.73v10.37h-1.91v-10.13c0-3.77-1.56-5.71-4.24-5.71-3.03,0-4.94,2.38-4.94,6.46v9.38h-1.91v-17.88h1.83v3.3c1.02-2.18,2.93-3.43,5.37-3.43,3.44,0,5.8,2.52,5.8,7.65Z"/><path class="d" d="M171.48,159.16c0-5.34,3.06-9.08,7.28-9.08,2.39,0,4.4,1.19,5.53,3.54l-1.42,1.22c-.97-1.8-2.47-2.65-4.11-2.65-3.09,0-5.34,2.79-5.34,6.97s2.26,6.97,5.34,6.97c1.64,0,3.14-.82,4.11-2.62l1.42,1.22c-1.13,2.31-3.14,3.54-5.53,3.54-4.22,0-7.28-3.77-7.28-9.11Z"/><path class="d" d="M200.08,159.91h-11.82c.21,3.74,2.47,6.22,5.56,6.22,1.72,0,3.25-.78,4.32-2.35l1.07,1.56c-1.26,1.9-3.22,2.92-5.45,2.92-4.4,0-7.41-3.81-7.41-9.11s2.93-9.08,6.9-9.08,6.85,3.71,6.85,9.08c0,.2-.03.48-.03.75ZM188.27,158.11h10.02c-.24-3.5-2.26-5.95-5.02-5.95s-4.75,2.45-5,5.95Z"/><path class="d" d="M221.7,157.02v11.08h-1.83v-2.79c-.86,1.84-2.52,2.96-4.86,2.96-3.2,0-5.16-2.11-5.16-5.2,0-2.75,1.4-5.07,5.45-5.07h4.48v-1.09c0-3.06-1.37-4.73-4-4.73-1.83,0-3.54.82-4.7,2.11l-.86-1.8c1.42-1.53,3.52-2.41,5.75-2.41,3.65,0,5.72,2.31,5.72,6.94ZM219.8,162.73v-2.92h-4.43c-2.74,0-3.63,1.36-3.63,3.2,0,2.07,1.32,3.37,3.57,3.37s3.73-1.29,4.48-3.64Z"/><path class="d" d="M239.89,157.73v10.37h-1.91v-10.13c0-3.77-1.56-5.71-4.24-5.71-3.04,0-4.94,2.38-4.94,6.46v9.38h-1.91v-17.88h1.83v3.3c1.02-2.18,2.93-3.43,5.37-3.43,3.44,0,5.8,2.52,5.8,7.65Z"/><path class="d" d="M258.02,142.88v25.23h-1.83v-3.54c-1.15,2.41-3.12,3.71-5.45,3.71-4.03,0-7.04-3.71-7.04-9.11s3.01-9.08,7.04-9.08c2.26,0,4.19,1.22,5.37,3.54v-10.74h1.91ZM256.14,159.16c0-4.18-2.26-6.97-5.24-6.97s-5.26,2.79-5.26,6.97,2.26,6.97,5.26,6.97,5.24-2.79,5.24-6.97Z"/><path class="d" d="M274.43,146.48h-6.61v-2.18h15.2v2.18h-6.61v21.62h-1.99v-21.62Z"/><path class="d" d="M296.62,159.91h-11.82c.21,3.74,2.47,6.22,5.56,6.22,1.72,0,3.25-.78,4.32-2.35l1.07,1.56c-1.26,1.9-3.22,2.92-5.45,2.92-4.4,0-7.41-3.81-7.41-9.11s2.93-9.08,6.9-9.08,6.85,3.71,6.85,9.08c0,.2-.03.48-.03.75ZM284.8,158.11h10.02c-.24-3.5-2.26-5.95-5.02-5.95s-4.75,2.45-4.99,5.95Z"/><path class="d" d="M299.11,159.16c0-5.34,3.06-9.08,7.28-9.08,2.39,0,4.4,1.19,5.53,3.54l-1.42,1.22c-.97-1.8-2.47-2.65-4.11-2.65-3.09,0-5.34,2.79-5.34,6.97s2.26,6.97,5.34,6.97c1.64,0,3.14-.82,4.11-2.62l1.42,1.22c-1.13,2.31-3.14,3.54-5.53,3.54-4.22,0-7.28-3.77-7.28-9.11Z"/><path class="d" d="M328.44,157.73v10.37h-1.91v-10.13c0-3.77-1.56-5.71-4.24-5.71-3.04,0-4.94,2.38-4.94,6.46v9.38h-1.91v-25.23h1.91v10.47c1.05-2.07,2.9-3.26,5.29-3.26,3.44,0,5.8,2.52,5.8,7.65Z"/><path class="d" d="M346.63,157.73v10.37h-1.91v-10.13c0-3.77-1.56-5.71-4.24-5.71-3.04,0-4.94,2.38-4.94,6.46v9.38h-1.91v-17.88h1.83v3.3c1.02-2.18,2.93-3.43,5.37-3.43,3.44,0,5.8,2.52,5.8,7.65Z"/><path class="d" d="M350.44,159.16c0-5.3,3.06-9.08,7.2-9.08s7.17,3.77,7.17,9.08-3.04,9.11-7.17,9.11-7.2-3.81-7.2-9.11ZM362.88,159.16c0-4.18-2.23-6.97-5.24-6.97s-5.26,2.79-5.26,6.97,2.26,6.97,5.26,6.97,5.24-2.79,5.24-6.97Z"/><path class="d" d="M368.71,142.88h1.91v25.23h-1.91v-25.23Z"/><path class="d" d="M374.51,159.16c0-5.3,3.06-9.08,7.2-9.08s7.17,3.77,7.17,9.08-3.04,9.11-7.17,9.11-7.2-3.81-7.2-9.11ZM386.94,159.16c0-4.18-2.23-6.97-5.24-6.97s-5.26,2.79-5.26,6.97,2.26,6.97,5.26,6.97,5.24-2.79,5.24-6.97Z"/><path class="d" d="M405.85,150.22v15.71c0,6.15-2.39,8.94-7.06,8.94-2.58,0-5.1-.99-6.58-2.75l.97-1.84c1.34,1.53,3.38,2.45,5.56,2.45,3.57,0,5.21-2.07,5.21-6.49v-2.28c-1.18,2.28-3.2,3.47-5.51,3.47-4.03,0-7.09-3.57-7.09-8.7s3.06-8.63,7.09-8.63c2.36,0,4.4,1.22,5.59,3.57v-3.43h1.83ZM404,158.72c0-3.88-2.26-6.53-5.37-6.53s-5.34,2.65-5.34,6.53,2.23,6.56,5.34,6.56,5.37-2.69,5.37-6.56Z"/><path class="d" d="M423.07,150.22l-7.06,20.02c-1.18,3.5-2.69,4.62-4.7,4.62-1.32,0-2.58-.54-3.44-1.63l.89-1.8c.7.88,1.56,1.36,2.58,1.36,1.26,0,2.12-.75,2.93-2.99l.62-1.73-6.31-17.85h1.99l5.32,15.2,5.32-15.2h1.88Z"/></g></svg>